<?xml version="1.0" encoding="UTF-8"?>
<svg id="_圖層_2" data-name="圖層 2" xmlns="http://www.w3.org/2000/svg" viewBox="0 0 42.22 32.08">
  <g id="mountain">
    <g>
      <path d="M26.95,0S18.6,1.23,10.52,9.07c0,0-4.02,3.9-3.38,7.52,.64,3.62,2.39,4.74,5.06,5.65l-.16,9.83s-9.51-.16-11.66-7.96c-2.15-7.8,5.81-14.96,6.85-15.84C8.25,7.41,15.21,.79,26.95,0Z"/>
      <path d="M16.45,5.45s7.96-4.06,13.65-1.43c0,0,5.24,2.58,3.06,8.2-1.71,4.42-4.78,6.21-4.78,6.21l-.12,10.15s7.68-2.98,13.01-13.21c.54-1.03,3.42-9.47-4.7-14.09C34.13-.12,26.56-1.19,16.45,5.45Z"/>
      <path d="M27.35,13.03c0,3.82-3.1,6.93-6.93,6.93s-6.93-3.1-6.93-6.93,3.1-6.93,6.93-6.93,6.93,3.1,6.93,6.93Z"/>
    </g>
  </g>
</svg>