<?xml version="1.0" encoding="UTF-8"?>
<svg id="_圖層_2" data-name="圖層 2" xmlns="http://www.w3.org/2000/svg" xmlns:xlink="http://www.w3.org/1999/xlink" viewBox="0 0 1661.22 609.25">
  <defs>
    <style>
      .cls-1 {
        fill: #ce192c;
      }

      .cls-2 {
        stroke: #757575;
      }

      .cls-2, .cls-3 {
        fill: none;
        stroke-miterlimit: 10;
      }

      .cls-4 {
        fill: url(#radial-gradient);
      }

      .cls-3 {
        stroke: #232323;
      }

      .cls-5 {
        fill: #4f4f4f;
      }

      .cls-6 {
        fill: #232323;
        font-family: NotoSerifTC-SemiBold-90ms-RKSJ-H, 'Noto Serif TC';
        font-size: 17px;
        glyph-orientation-vertical: 0deg;
        letter-spacing: .4em;
        text-orientation: upright;
        writing-mode: tb;
      }

      .cls-7 {
        fill: #231815;
      }

      .cls-8 {
        fill: #362967;
      }
    </style>
    <radialGradient id="radial-gradient" cx="28.82" cy="9.7" fx="28.82" fy="9.7" r="10.8" gradientUnits="userSpaceOnUse">
      <stop offset=".07" stop-color="#b3cf82"/>
      <stop offset=".09" stop-color="#8ec46d"/>
      <stop offset=".12" stop-color="#6db95a"/>
      <stop offset=".15" stop-color="#54b24b"/>
      <stop offset=".18" stop-color="#41ac40"/>
      <stop offset=".22" stop-color="#36a93a"/>
      <stop offset=".25" stop-color="#33a838"/>
      <stop offset=".43" stop-color="#33a838"/>
      <stop offset=".59" stop-color="#1e8837"/>
      <stop offset=".74" stop-color="#107137"/>
      <stop offset=".83" stop-color="#0b6937"/>
    </radialGradient>
  </defs>
  <g id="text">
    <g>
      <text class="cls-6" transform="translate(1652.72 352.14)"><tspan x="0" y="0">體貼入心</tspan><tspan x="0" y="95.2" xml:space="preserve">      </tspan><tspan x="0" y="161.91">更甚於家</tspan></text>
      <line class="cls-3" x1="1652.72" y1="502.04" x2="1652.72" y2="451.91"/>
    </g>
    <g>
      <text class="cls-6" transform="translate(8.5 352.14)"><tspan x="0" y="0">以客為尊</tspan><tspan x="0" y="95.2" xml:space="preserve">      </tspan><tspan x="0" y="161.91">服務大眾</tspan></text>
      <line class="cls-3" x1="8.5" y1="502.04" x2="8.5" y2="451.91"/>
    </g>
    <g>
      <g>
        <path class="cls-7" d="M325.81,4.88c.67,.76,1.01,1.75,1.01,2.98h.88V1.07h-.88v.31c0,.85-.25,1.27-.74,1.27-.29,0-.68-.08-1.16-.24-.48-.16-1.07-.34-1.77-.55-.7-.2-1.51-.39-2.43-.55-.92-.16-1.98-.24-3.18-.24h-8.43c-2.45,0-4.7,.39-6.73,1.18-2.03,.79-3.76,1.9-5.19,3.33-1.43,1.43-2.54,3.16-3.33,5.19-.79,2.03-1.18,4.27-1.18,6.73s.39,4.7,1.18,6.73c.79,2.03,1.9,3.76,3.33,5.19,1.43,1.43,3.16,2.54,5.19,3.33,2.03,.79,4.27,1.18,6.73,1.18h8.16l.14-.03c3.1-.14,5.54-.87,7.32-2.18,1.99-1.47,2.98-3.45,2.98-5.94,0-1.64-.34-3.03-1.01-4.18-.67-1.15-1.54-2.14-2.61-2.96-1.07-.82-2.26-1.5-3.57-2.06-.46-.19-.92-.38-1.38-.56h0c-.6-.23-1.2-.45-1.79-.65l-.33-.14c-.48-.16-.94-.33-1.38-.51h0c-2.04-.74-3.64-1.63-4.8-2.67-1.29-1.15-1.93-2.46-1.93-3.92,0-.85,.12-1.64,.37-2.39,.25-.74,.68-1.4,1.29-1.97,.61-.57,1.42-1.01,2.43-1.34,.41-.13,.86-.23,1.35-.31,.11,.03,.22,.07,.32,.11,.29,.13,.53,.34,.7,.64,.18,.29,.26,.7,.26,1.23V13.92c.52,.22,1.06,.42,1.65,.62l.34,.14c.5,.17,1.01,.35,1.52,.55V4.66c0-.67-.15-1.52,.61-2.05,.42-.29,1.09-.28,1.61-.21,.69,.17,1.36,.39,2.01,.69,.96,.44,1.78,1.04,2.45,1.8Zm-17.48-1.82c-1.99,1.33-2.98,3.25-2.98,5.76,0,1.2,.26,2.27,.79,3.22,.53,.95,1.26,1.81,2.19,2.59,.64,.53,1.37,1.02,2.18,1.47,.27,.14,.55,.29,.83,.42,1.25,.59,2.63,1.14,4.1,1.63l.49,.18c1.49,.51,2.74,1.06,3.73,1.63,.18,.1,.36,.2,.53,.3,1.01,.61,1.8,1.25,2.39,1.91,.58,.66,.99,1.32,1.21,1.99,.22,.67,.33,1.33,.33,1.97,0,.88-.12,1.72-.37,2.54-.25,.82-.67,1.56-1.27,2.21-.21,.23-.46,.45-.73,.65-.4,.17-1.04,.38-1.6,.21-.88-.27-1-.73-1-1.4v-9.82c-.92-.51-2.08-1.01-3.45-1.49l-.05-.02v11.9c0,.53-.09,.94-.26,1.23-.18,.29-.41,.5-.7,.64-.29,.13-.61,.21-.96,.24-.35,.03-.7,.04-1.05,.04h-3.55c-1.93,0-3.69-.45-5.28-1.34-1.59-.89-2.94-2.07-4.05-3.53-1.11-1.46-1.97-3.13-2.59-4.99-.61-1.87-.92-3.77-.92-5.7s.31-3.83,.92-5.7c.61-1.87,1.48-3.53,2.59-5,1.11-1.46,2.46-2.64,4.05-3.53,1.59-.89,3.35-1.34,5.28-1.34h1.55c-.87,.3-1.64,.67-2.32,1.12Z"/>
        <g>
          <g>
            <path class="cls-5" d="M339.96,33.53v-.31l.96-.09c0-.42,0-.85,0-1.28v-3.83c0-.43,0-.86,0-1.29l-.96-.08v-.31h3.04c.76,0,1.42,.14,1.96,.42,.54,.28,.96,.69,1.25,1.23,.29,.53,.43,1.18,.43,1.93s-.15,1.39-.45,1.92c-.3,.54-.74,.95-1.31,1.25-.57,.29-1.25,.44-2.04,.44h-2.88Zm2.19-.34h.63c.85,0,1.49-.29,1.94-.86,.45-.58,.67-1.37,.67-2.39s-.22-1.87-.66-2.42c-.44-.55-1.06-.83-1.87-.83h-.72c0,.44-.01,.88-.02,1.33v3.83c0,.45,.01,.9,.02,1.35Z"/>
            <path class="cls-5" d="M348.8,33.53v-.33l1.03-.07c0-.43,0-.86,0-1.3v-3.92c0-.44,0-.87,0-1.3l-1.03-.07v-.33h3.58c.83,0,1.47,.16,1.92,.48,.44,.32,.67,.78,.67,1.39,0,.31-.09,.61-.26,.9-.17,.28-.44,.52-.79,.7-.25,.13-.56,.22-.91,.27,.14,.03,.27,.06,.38,.08,.25,.07,.44,.17,.59,.29,.14,.12,.26,.28,.35,.46,.09,.18,.17,.39,.24,.63l.6,1.73,1.05,.07v.33c-.13,.03-.25,.05-.36,.07-.11,.02-.22,.04-.34,.05-.11,.01-.24,.02-.38,.02-.41,0-.72-.07-.92-.21-.2-.14-.34-.36-.41-.68l-.51-1.51c-.08-.24-.16-.45-.25-.61-.09-.17-.2-.29-.35-.39-.15-.09-.35-.14-.61-.14h-1.03c0,.58,0,1.14,0,1.68,0,.44,0,.87,0,1.3l1.12,.08v.33h-3.38Zm2.24-3.75h1.12c.36,0,.66-.08,.89-.23,.24-.15,.41-.35,.53-.59,.12-.24,.18-.51,.18-.81,0-.49-.14-.88-.42-1.16-.28-.29-.71-.43-1.28-.43h-1c0,.45,0,.9,0,1.36,0,.57,0,1.19,0,1.85Z"/>
            <path class="cls-5" d="M357.87,33.53v-.31l.96-.09c0-.42,0-.84,0-1.26v-3.86c0-.43,0-.86,0-1.28l-.96-.08v-.31h5.36l.04,1.84h-.49l-.33-1.48h-2.39c0,.43-.01,.87-.02,1.31v1.69h1.56l.13-1.03h.41v2.36h-.41l-.12-.99h-1.57v1.8c0,.45,.01,.89,.02,1.34h2.56l.35-1.53h.47l-.03,1.89h-5.55Z"/>
            <path class="cls-5" d="M365.21,33.53v-.31l.83-.11,2.27-6.82h.74l2.33,6.85,.81,.08v.31h-3.06v-.31l1.03-.1-.63-1.98h-2.41l-.62,1.97,.93,.11v.31h-2.2Zm4.2-2.71l-1.11-3.45-1.09,3.45h2.2Z"/>
            <path class="cls-5" d="M373.82,33.53v-.31l1.02-.12,.02-6.36-.97-.09v-.31h2.2l2.23,5.65,2.2-5.65h2.18v.31l-.93,.08c-.01,.42-.02,.85-.02,1.28v3.86c0,.42,0,.84,.02,1.26l.95,.09v.31h-3.12v-.31l.94-.09c0-.42,0-.84,0-1.25,0-.55,0-1.06,0-1.54l.03-3.15-2.45,6.34h-.4l-2.52-6.34,.05,2.72v3.19l1.05,.12v.31h-2.49Z"/>
            <path class="cls-5" d="M394.44,33.71c-.4,0-.79-.05-1.18-.16-.39-.11-.71-.25-.97-.42l.06-1.56h.48l.36,1.53c.1,.04,.19,.08,.28,.11,.25,.08,.54,.12,.87,.12,.51,0,.91-.12,1.21-.35,.3-.23,.45-.56,.45-1,0-.23-.04-.43-.12-.6-.08-.17-.21-.32-.39-.45-.18-.13-.44-.27-.76-.41l-.44-.19c-.6-.27-1.07-.57-1.39-.91-.32-.34-.48-.78-.48-1.32,0-.42,.11-.78,.32-1.06,.21-.29,.5-.5,.87-.65,.37-.15,.78-.22,1.25-.22,.38,0,.72,.05,1.03,.14,.31,.09,.58,.23,.83,.4l-.06,1.48h-.48l-.35-1.46s-.09-.05-.13-.06c-.2-.08-.44-.12-.72-.12-.45,0-.81,.11-1.09,.32-.28,.21-.42,.52-.42,.92,0,.35,.1,.63,.3,.85,.2,.22,.49,.4,.86,.56l.47,.2c.49,.21,.88,.42,1.17,.63,.29,.21,.5,.45,.62,.7,.12,.25,.18,.55,.18,.91,0,.42-.1,.78-.31,1.09-.21,.31-.51,.55-.9,.72-.39,.17-.87,.26-1.41,.26Z"/>
            <path class="cls-5" d="M400.24,33.53v-.31l1.06-.09c0-.42,.01-.84,.02-1.26v-3.86c0-.44-.01-.87-.02-1.31h-1.64l-.37,1.6h-.48l.06-1.96h6.1l.07,1.96h-.48l-.37-1.6h-1.66c0,.43,0,.87,0,1.3,0,.57,0,1.13,0,1.69v.49c0,.56,0,1.12,0,1.68,0,.42,0,.85,0,1.27l1.07,.09v.31h-3.36Z"/>
            <path class="cls-5" d="M410.18,33.71c-.44,0-.86-.08-1.26-.25-.4-.17-.75-.41-1.06-.73-.31-.32-.55-.71-.73-1.18-.18-.47-.27-1.01-.27-1.62s.09-1.13,.27-1.6c.18-.47,.42-.87,.73-1.19,.31-.32,.66-.57,1.06-.73,.4-.17,.82-.25,1.26-.25s.87,.08,1.27,.24c.39,.16,.75,.4,1.05,.73,.31,.32,.55,.72,.73,1.19,.18,.47,.27,1.01,.27,1.61s-.09,1.14-.27,1.61c-.18,.47-.42,.86-.73,1.19-.31,.32-.66,.57-1.05,.73-.39,.17-.82,.25-1.27,.25Zm0-.35c.34,0,.64-.09,.9-.26,.25-.18,.47-.42,.63-.73,.17-.31,.3-.67,.38-1.09,.09-.42,.13-.86,.13-1.34s-.04-.92-.13-1.33c-.09-.41-.21-.78-.38-1.09-.17-.31-.38-.56-.63-.73-.25-.17-.55-.26-.9-.26s-.64,.09-.9,.26c-.26,.17-.47,.41-.64,.73-.17,.31-.29,.68-.38,1.09-.08,.41-.13,.86-.13,1.33s.04,.92,.13,1.34,.21,.78,.38,1.09c.17,.31,.38,.55,.64,.73,.26,.17,.56,.26,.9,.26Z"/>
            <path class="cls-5" d="M415.48,33.53v-.31l.94-.12v-6.29l-.06-.09-.87-.07v-.31h2l3.8,5.57-.03-2.58v-2.56l-1.24-.12v-.31h2.59v.31l-.96,.12v6.81h-.61l-4.26-6.22,.07,3.42v2.33l1.21,.12v.31h-2.59Z"/>
            <path class="cls-5" d="M424.6,33.53v-.31l.96-.09c0-.42,0-.84,0-1.26v-3.86c0-.43,0-.86,0-1.28l-.96-.08v-.31h5.36l.04,1.84h-.49l-.33-1.48h-2.39c0,.43-.01,.87-.02,1.31v1.69h1.56l.13-1.03h.41v2.36h-.41l-.12-.99h-1.57v1.8c0,.45,.01,.89,.02,1.34h2.56l.35-1.53h.47l-.03,1.89h-5.55Z"/>
          </g>
          <g>
            <path class="cls-5" d="M339.55,2.18h14.37l1.28-1.58,.23,.18c.16,.11,.36,.27,.61,.46,.25,.19,.51,.39,.77,.61,.27,.21,.51,.41,.73,.6-.05,.21-.23,.31-.54,.31h-8.92c-.45,1.27-1.04,2.54-1.78,3.79-.38,.64-.79,1.25-1.23,1.84l.82,.3h7.54l.98-1.09,2.11,1.62c-.08,.09-.19,.17-.35,.25-.16,.08-.35,.14-.56,.2v7.99s-.11,.1-.3,.2c-.18,.09-.4,.18-.65,.25-.25,.07-.49,.11-.73,.11h-.29v-1.77h-8.02v1.34c0,.06-.14,.18-.42,.34s-.67,.24-1.16,.24h-.33V10.05c-.14,.15-.29,.31-.45,.47-1.17,1.23-2.48,2.3-3.94,3.19l-.18-.2c.82-.74,1.59-1.57,2.3-2.47,.71-.9,1.35-1.85,1.93-2.84,.58-.99,1.06-2,1.47-3.01,.32-.82,.59-1.63,.78-2.42h-5.9l-.16-.57Zm6.08,7.08v6.64h8.02v-6.64h-8.02Z"/>
            <path class="cls-5" d="M374.45,9.26c-.05,.11-.18,.2-.39,.25-.12,.04-.25,.04-.37,.02-.32,.45-.72,.92-1.19,1.41-.56,.61-1.18,1.23-1.85,1.86-.67,.63-1.36,1.21-2.07,1.76-.48,.38-.94,.71-1.4,1.01,.34,0,.72,0,1.14-.02,.92-.03,1.99-.06,3.19-.11,1.21-.05,2.49-.11,3.84-.18,.92-.04,1.86-.08,2.82-.13-.18-.3-.38-.6-.57-.92-.4-.62-.82-1.23-1.26-1.82-.44-.59-.87-1.12-1.3-1.61l.22-.15c1.15,.55,2.1,1.11,2.87,1.7,.77,.59,1.39,1.16,1.85,1.73,.46,.57,.79,1.11,.99,1.61s.3,.96,.29,1.36c0,.4-.09,.71-.26,.94-.17,.23-.4,.35-.68,.36-.29,.01-.6-.11-.93-.37-.16-.6-.39-1.21-.71-1.83-.08-.17-.16-.34-.26-.5-1.2,.22-2.62,.48-4.28,.76-2.11,.36-4.51,.73-7.18,1.12-.17,.24-.36,.38-.58,.45l-.8-2.52,.15-.04c.1-.01,.21-.04,.33-.09s.22-.1,.28-.15c.47-.34,.97-.81,1.5-1.42,.53-.61,1.05-1.27,1.57-1.98,.52-.71,.98-1.41,1.38-2.11,.35-.59,.64-1.11,.86-1.58h-7.61l-.15-.57h14.58l1.27-1.62,.23,.18c.16,.12,.36,.27,.6,.47,.24,.2,.5,.4,.76,.62,.27,.21,.51,.42,.73,.62-.05,.21-.23,.31-.54,.31h-9.31l2.23,1.19Zm3.34-8.7l.23,.18c.16,.11,.36,.26,.6,.45,.24,.19,.49,.38,.74,.6,.25,.21,.49,.41,.72,.6-.06,.21-.24,.31-.55,.31h-13.45l-.15-.57h10.61l1.25-1.57Z"/>
            <path class="cls-5" d="M391.82,2.13l.88-.9,1.8,1.6c-.12,.11-.3,.2-.52,.26-.12,.01-.25,.03-.37,.04-.12,.26-.26,.56-.41,.9-.24,.48-.48,1-.74,1.54-.26,.54-.52,1.06-.78,1.55-.13,.27-.26,.52-.37,.74h1.23l.95-.99,1.75,1.51c-.12,.15-.37,.25-.74,.29-.13,.98-.33,1.94-.59,2.87-.26,.93-.62,1.82-1.09,2.65-.04,.08-.09,.15-.12,.23,.3,.2,.61,.37,.95,.52,1,.44,2.18,.73,3.53,.88,1.36,.15,2.92,.22,4.7,.22h2.26c.45,0,.88,0,1.31,0,.43,0,.8,0,1.11,0v.24c-.39,.08-.68,.26-.88,.56-.2,.3-.31,.64-.33,1.02h-3.64c-1.82,0-3.42-.11-4.8-.32-1.38-.21-2.57-.6-3.58-1.17-.47-.26-.9-.58-1.29-.95-.3,.39-.63,.76-1,1.11-.73,.71-1.63,1.33-2.71,1.86l-.16-.26c1.09-.81,1.96-1.75,2.59-2.83,.15-.26,.3-.53,.43-.8-.15-.18-.28-.37-.39-.56-.71-1.07-1.3-2.46-1.78-4.16l.26-.13c.5,1.39,1.09,2.52,1.79,3.38,.17,.2,.35,.38,.53,.54,.22-.56,.4-1.15,.54-1.76,.26-1.09,.45-2.21,.56-3.34h-1.54l-.65,.6-1.64-1.14c.13-.09,.3-.18,.51-.29,.06-.03,.13-.05,.2-.09,.13-.24,.27-.52,.43-.82,.26-.52,.52-1.06,.79-1.63s.52-1.11,.75-1.64c.12-.27,.22-.52,.31-.74h-3.34l-.17-.57h3.49Zm10.37,.22l.88-.98,1.87,1.45c-.05,.06-.15,.13-.29,.2-.14,.07-.3,.13-.48,.17v1.68h.23l.88-1.35,.28,.27c.18,.19,.4,.4,.64,.65,.24,.25,.46,.48,.64,.69-.05,.2-.23,.31-.53,.31h-2.15v2.74c0,.05-.09,.12-.26,.2-.17,.08-.37,.15-.6,.21-.23,.06-.44,.09-.65,.09h-.28v-.64h-2.17v2h2.17l1-1.32,.19,.16c.13,.1,.29,.23,.48,.39,.19,.16,.38,.33,.59,.51,.21,.18,.4,.35,.59,.51-.05,.21-.23,.31-.52,.31h-4.5v2.05h2.8l1.11-1.4,.22,.15c.14,.11,.32,.26,.53,.43,.22,.17,.44,.35,.68,.54,.24,.19,.45,.37,.65,.54-.03,.1-.1,.18-.19,.23-.1,.05-.22,.08-.36,.08h-5.43v1.94c0,.05-.07,.12-.21,.2-.14,.09-.33,.16-.55,.22-.22,.06-.46,.1-.71,.1h-.37v-2.46h-4.28l-.16-.56h4.44v-2.05h-3.32l-.15-.56h3.47v-2h-3.08l-.18-.57h3.26v-2.01h-4.59l-.15-.56h4.74v-1.98h-3.21l-.17-.54h3.38V.21l2.57,.26c-.01,.13-.07,.25-.17,.34-.1,.1-.28,.16-.56,.2v1.34h1.98Zm-1.98,.54v1.98h2.17v-1.98h-2.17Zm0,2.54v2.01h2.17v-2.01h-2.17Z"/>
            <path class="cls-5" d="M419.67,2.55l.3,.24c.2,.15,.43,.34,.69,.56,.26,.22,.5,.44,.73,.65-.06,.21-.24,.32-.53,.32h-7.76l-.15-.57h5.78l.95-1.19Zm6.24-1.01l.92-.96,1.72,1.43c-.11,.13-.36,.22-.73,.28v3.53c0,.11,.02,.18,.07,.23,.05,.04,.13,.07,.26,.07h.95c.11,0,.19,0,.24-.02h.35c.06-.01,.13-.03,.2-.04,.07-.01,.14-.03,.21-.04h.18l.08,.02c.22,.09,.38,.19,.48,.29,.1,.11,.14,.24,.14,.42,0,.32-.18,.58-.52,.76-.35,.18-.99,.27-1.92,.27h-.95c-.43,0-.76-.05-.97-.15-.21-.1-.35-.25-.42-.47-.07-.21-.1-.5-.1-.85V2.11h-2.46v1c0,.4-.04,.86-.11,1.37-.08,.52-.23,1.04-.47,1.57-.24,.53-.6,1.04-1.08,1.54-.48,.48-1.13,.91-1.94,1.31,.13,.11,.26,.23,.37,.33-.05,.2-.22,.31-.51,.31h-6.12l-.15-.56h4.3l.88-1.12,.28,.22c.18,.14,.4,.32,.65,.54,.09,.06,.17,.14,.25,.22l-.12-.18c.6-.56,1.04-1.16,1.33-1.8,.29-.64,.47-1.28,.56-1.92,.09-.64,.13-1.25,.13-1.82V.76l2.05,.78h1.98Zm-7.1,3.69l.28,.21c.18,.16,.4,.35,.66,.56,.25,.22,.48,.42,.67,.61-.05,.21-.22,.32-.51,.32h-6.12l-.15-.56h4.3l.88-1.14Zm-.84,6.33l.86-.92,1.82,1.39c-.13,.15-.39,.27-.78,.34v4.62c0,.05-.08,.12-.23,.19-.16,.08-.35,.15-.57,.22-.22,.07-.43,.11-.63,.11h-.27v-1.1h-2.59v1.25c0,.06-.07,.13-.21,.21-.14,.08-.32,.16-.53,.23-.21,.07-.44,.11-.69,.11h-.26v-7.43l1.78,.75h2.3Zm-2.97-11.16c.78,.09,1.4,.25,1.85,.48,.45,.23,.76,.48,.95,.76,.18,.28,.27,.55,.25,.82-.02,.27-.11,.49-.28,.67-.17,.18-.39,.29-.65,.31-.27,.03-.55-.06-.85-.25-.08-.46-.26-.94-.54-1.44-.29-.5-.58-.92-.88-1.24l.15-.11Zm3.17,15.46v-3.73h-2.59v3.73h2.59Zm8.81-6.68l1.12-1.06,1.79,1.64c-.07,.09-.16,.15-.28,.2-.12,.04-.29,.07-.52,.08-.56,1.33-1.3,2.54-2.21,3.62-.25,.29-.51,.57-.78,.84,.57,.35,1.19,.66,1.86,.92,.95,.38,1.96,.67,3.05,.9l-.04,.24c-.39,.06-.72,.23-.99,.52-.27,.28-.48,.64-.61,1.09-1.35-.5-2.54-1.11-3.55-1.84-.33-.25-.64-.51-.93-.78-.44,.32-.91,.64-1.4,.94-1.35,.78-2.98,1.4-4.87,1.86l-.13-.28c2.25-.85,4.1-2,5.55-3.45-.26-.34-.51-.7-.74-1.08-.61-1.04-1.09-2.3-1.44-3.77h-1.02l-.17-.56h6.35Zm-2.11,4.45c.95-1.17,1.68-2.47,2.18-3.88h-4.83c.3,.83,.68,1.58,1.15,2.24,.43,.62,.93,1.16,1.5,1.64Z"/>
          </g>
        </g>
      </g>
      <line class="cls-2" x1="265.63" x2="265.63" y2="34.09"/>
      <g>
        <path class="cls-5" d="M77.65,5.71s1.27,.98,2,1.68c-.04,.21-.21,.31-.5,.31l-9.87,.02-.02-.08c-.06,.19-.25,.29-.52,.29h-2.51v9.77c0,.19-.83,.58-1.56,.58h-.4v-7.94c-.81,1.68-1.73,3.51-2.66,4.84l-.29-.1c.4-1.7,1.04-4.39,1.48-6.55l1.46,.52v-1.12h-2.66l-.15-.54h2.81V.22l2.68,.27c-.06,.27-.19,.48-.71,.54V7.39h.33l.96-1.29s1.04,.89,1.72,1.5l-.12-.44h3.57v-1.81h-2.43l-.15-.56h2.58v-1.68h-3.16l-.08-.23c-.13,.08-.31,.14-.54,.12-.67,1.16-1.5,2.56-2.27,3.53l-.31-.13c.27-1.16,.66-3.03,.96-4.59l2.16,.75h3.24V.22l2.78,.25c-.04,.25-.17,.42-.62,.5v1.58h1.21l1.12-1.41s1.25,.96,1.99,1.66c-.06,.21-.23,.31-.52,.31h-3.8v1.68h.83l1-1.29s1.18,.89,1.87,1.54c-.06,.21-.25,.31-.52,.31h-3.18v1.81h1.7l1.1-1.45Zm-15.76-3.74c3.82,2.7,2.04,5.88,.58,4.34,.06-1.39-.4-3.04-.83-4.26l.25-.08Zm4.7,6.96c4.09,2.76,2.27,6.11,.73,4.53,.02-1.45-.5-3.18-.96-4.45l.23-.08Zm10.12-.92l2.1,1.58c-.14,.15-.4,.31-.81,.39v5.76c0,1.39-.29,2.18-2.52,2.39-.04-.64-.12-1.12-.37-1.43-.23-.31-.6-.52-1.37-.66v-.27s1.52,.1,1.87,.1c.27,0,.37-.12,.37-.37v-1.48h-4.09c-.19,1.6-.93,3.26-3.41,4.36l-.17-.19c1.46-1.48,1.58-3.43,1.58-5.45v-4.51l2.39,.87h3.51l.93-1.08Zm-.73,5.45v-1.64h-4.03v.91c0,.25,0,.48-.02,.73h4.05Zm-4.03-3.84v1.66h4.03v-1.66h-4.03Z"/>
        <path class="cls-5" d="M87.74,3.3h-3.39l-.15-.56h3.49l-.29-2.45,2.83,.19c-.02,.23-.17,.4-.56,.52l.21,1.73h.54l1.08-1.5s1.23,1.04,1.95,1.75c-.06,.21-.25,.31-.52,.31h-2.97l.19,1.54c-.31,.44-1.14,.64-2.16,.6l-.25-2.14Zm12.53,6.96s1.27,1.1,2,1.83c-.06,.21-.25,.31-.52,.31h-8.07c-1,2.58-3.45,4.72-9.19,5.78l-.1-.25c4.28-1.39,6.22-3.31,7.05-5.53h-6.8l-.14-.56h2.41V6.06l2.35,.89h2.78v-2.39l2.95,.29c-.04,.25-.19,.44-.67,.52v1.58h2.7l.98-1.21,2.33,1.6c-.14,.19-.37,.31-.87,.39v3.7l.81-1.16Zm-8.63,1.58c.31-1.06,.4-2.18,.4-3.3v-1.04h-2.97v4.34h2.56Zm2.16-9.1h2.25l.33-2.47,2.79,.52c-.04,.23-.21,.42-.71,.46l-.21,1.48h.96l1.1-1.5s1.21,1.04,1.93,1.75c-.06,.21-.25,.31-.52,.31h-3.55l-.21,1.58c-.39,.33-1.27,.46-2.24,.29l.25-1.87h-2.02l-.15-.56Zm.52,5.82c-.02,1.12-.12,2.24-.44,3.28h3.33V7.5h-2.89v1.06Zm.1,4.66c9.48,1.16,7.61,6.09,5.32,4.82-.75-1.16-2.76-3.14-5.4-4.59l.08-.23Z"/>
        <path class="cls-5" d="M110.09,6.94v10.54c0,.29-.81,.83-1.77,.83h-.37V.74l2.24,.96h2.52l.94-1.04,2,1.52c-.12,.14-.35,.29-.71,.37V7.25c-.02,.15-1,.6-1.68,.6h-.37v-.91h-2.81Zm0-4.68v1.77h2.81v-1.77h-2.81Zm2.81,4.14v-1.83h-2.81v1.83h2.81Zm5.69,6.38v4.12c-.02,.1-.58,.44-1.54,.44h-.35v-4.57h-1.75c-.21,1.7-.96,3.55-3.8,4.76l-.19-.21c1.6-1.33,2.04-2.97,2.16-4.55h-2.25l-.15-.56h2.45v-2.78h-1.85l-.15-.54h6.98l1-1.31s1.16,.91,1.83,1.56c-.04,.19-.23,.29-.5,.29h-1.87v2.78h.06l.96-1.31s1.08,.91,1.72,1.56c-.06,.21-.25,.31-.52,.31h-2.22Zm-1.89-.56v-2.78h-1.7v2.18c0,.19,0,.39-.02,.6h1.72Zm8.07-10c-.13,.15-.4,.33-.79,.39V15.73c0,1.52-.31,2.37-2.64,2.58-.06-.71-.13-1.25-.35-1.56-.25-.35-.58-.58-1.35-.73v-.25s1.45,.08,1.79,.08c.29,0,.37-.12,.37-.37V6.94h-2.93v.13c0,.19-.91,.64-1.77,.64h-.31V.83l2.16,.87h2.66l1-1.18,2.16,1.7Zm-5.9,.04v1.77h2.93v-1.77h-2.93Zm2.93,4.14v-1.83h-2.93v1.83h2.93Z"/>
        <path class="cls-5" d="M137.98,12.99c-.12,.15-.35,.27-.73,.31-.17,2.52-.58,3.95-1.41,4.53-.54,.35-1.23,.52-2.24,.52,0-.54-.06-1.04-.37-1.31-.31-.31-.92-.54-1.7-.67v-.27c.77,.06,2,.13,2.37,.13,.31,0,.46-.02,.6-.13,.31-.25,.56-1.33,.71-3.1h-2.08l-.77,.94-1.81-1.23c.21-.15,.5-.31,.79-.42,.19-1,.42-2.51,.48-3.33l2.12,.87h1.12v-2.51h-2.1c-.98,.5-2.08,.91-3.28,1.23l-.14-.23c1.58-.75,2.95-1.79,4.03-2.99-.35,.12-.77,.1-1.19-.19-.12-.77-.71-1.66-1.33-2.1l.13-.13c2.45-.14,3.22,.81,3.12,1.56,.56-.73,1-1.52,1.35-2.33h-4.86l-.17-.54h5.01l1.25-1.19,2.02,1.75c-.14,.19-.33,.25-.77,.31-.89,1.7-2.31,3.16-4.18,4.3h1.43l.83-.92,1.58,1.54c-.14,.14-.39,.27-.69,.33v2.97c-.04,.06-.89,.39-1.66,.39h-.39v-.69h-1.62c-.1,.66-.23,1.46-.37,2.1h1.99l1.04-1,1.87,1.54Zm9.48-9.29c-.12,.17-.29,.25-.71,.17-.6,.31-1.43,.67-2.25,.98,1.12,.48,2.29,.85,3.47,1.14l-.04,.21c-.91,.19-1.54,.91-1.85,1.99-.54-.25-1.06-.5-1.56-.79-.08,.02-.19,.04-.31,.06v1.73c0,.19,.04,.25,.23,.25h.64c.08,0,.27,0,.37-.02,.1-.02,.29-.04,.4-.06h.17l.1,.02c.46,.21,.6,.39,.6,.71,0,.77-.66,.96-2.27,.96h-.13l1.83,1.54c-.14,.19-.33,.23-.77,.27-.4,.69-.91,1.33-1.5,1.93,2.95,1.62,2.35,3.82,.64,3.3-.52-.66-1.29-1.39-2.16-2.08-1.52,1.04-3.41,1.79-5.59,2.25l-.13-.25c1.75-.69,3.3-1.72,4.47-2.91-.93-.64-1.89-1.21-2.76-1.62l.15-.21c1.41,.15,2.56,.4,3.51,.71,.33-.44,.62-.93,.85-1.41h-4.82l-.15-.56h4.97l1.06-.96h-.21c-1.37,0-1.5-.42-1.5-1.52v-2.24h-1.5v.64c0,1.16-.39,2.97-3.37,3.89l-.13-.19c1.35-1.12,1.46-2.52,1.46-3.7v-2.04l2.37,.85h.98l.66-.67c-1.62-1.41-2.87-3.28-3.58-5.82l.25-.14c.46,1.04,1.14,1.93,1.98,2.68,.6-.77,1.27-1.75,1.6-2.39l2.16,1.43c-.12,.19-.27,.27-.73,.17-.66,.39-1.64,.85-2.56,1.19,.62,.52,1.33,.94,2.06,1.33,.58-.73,1.19-1.68,1.48-2.27l2.16,1.45Z"/>
        <path class="cls-5" d="M167.87,1.87s1.5,1.12,2.41,1.91c-.06,.21-.27,.31-.54,.31h-9.23c-.44,.83-.94,1.64-1.54,2.43l.64,.23h5.34l1.06-1.25,2.31,1.77c-.14,.19-.42,.39-.87,.46v7.88c0,1.52-.35,2.41-2.99,2.66-.08-.75-.17-1.27-.48-1.64-.31-.35-.73-.6-1.72-.77v-.25s2.04,.12,2.47,.12c.33,0,.42-.13,.42-.39v-2.2h-6.09c-.33,1.87-1.2,3.8-3.51,5.18l-.15-.17c1.45-2.18,1.52-4.97,1.52-7.55v-1.71c-1.19,1.18-2.58,2.22-4.22,3.03l-.15-.19c2.45-2,4.28-4.84,5.47-7.63h-5.07l-.17-.56h5.47c.46-1.18,.83-2.29,1.08-3.37l3.14,.91c-.08,.23-.25,.37-.75,.37-.27,.69-.58,1.39-.93,2.1h5.72l1.35-1.66Zm-2.72,10.72v-2.39h-5.92v.4c0,.64-.02,1.29-.1,1.99h6.01Zm-5.92-5.3v2.35h5.92v-2.35h-5.92Z"/>
        <path class="cls-5" d="M192.74,11.1c-.14,.19-.37,.21-.73,.1-.69,.37-2.06,.92-3.39,1.29,1.27,1.66,2.95,2.85,4.84,3.49l-.04,.21c-.75,.21-1.41,.89-1.66,1.93-3.01-1.73-4.53-4.62-5.32-9.13h-1.5v6.32c.93-.19,1.99-.44,3.01-.71l.06,.23c-.81,.58-2.39,1.7-4.26,2.81-.17,.39-.46,.62-.69,.73l-1.1-2.37c.71-.37,.83-.56,.83-1.04V2.66c-.15,.08-.39,.1-.69,.12-.67,1.19-1.89,3.22-2.91,4.41,2.22,1.29,3.14,3.2,3.14,4.76,0,1.91-.77,3.04-3.03,3.08,0-.62-.08-1.48-.25-1.77-.13-.21-.46-.39-.93-.48v-.25h1.25c.19,0,.31-.02,.42-.1,.27-.17,.44-.5,.44-1.08,0-1.35-.42-2.83-1.52-4.12,.35-1.23,.81-3.55,1.06-5.07h-1.72v15.48c0,.15-.64,.67-1.72,.67h-.37V.72l2.33,.91h1.33l1.16-1.14,1.98,1.87V.68l2.41,.98h3.91l1.04-1.14,2.12,1.64c-.12,.15-.37,.31-.77,.4v6.53c0,.1-.39,.31-.85,.46l2.1,1.54Zm-3.45-6.17V2.2h-4.36v2.74h4.36Zm-4.36,3.49h4.36v-2.93h-4.36v2.93Zm1.85,.56c.35,1.12,.87,2.16,1.48,3.04,.66-.71,1.39-1.66,1.85-2.33-.17,.04-.33,.06-.46,.06h-.37v-.77h-2.51Z"/>
        <path class="cls-5" d="M206.05,2.51c-.1,.23-.35,.39-.81,.35-1.7,3.68-4.09,6.13-7,7.71l-.19-.17c1.95-2.04,3.89-5.43,4.88-9.06l3.12,1.18Zm3.37,8.31c7.42,3.35,5.38,9.17,2.78,6.98-.1-.77-.29-1.58-.58-2.39-2.52,.75-5.99,1.62-10.25,2.41-.19,.27-.42,.44-.67,.52l-.96-2.95s.58-.13,.81-.33c1.52-1.39,3.82-5.67,4.47-8.09l3.28,1.25c-.1,.21-.33,.39-.75,.37-1.29,2.16-3.87,5.11-6.09,6.9,2.43-.08,6.17-.31,9.94-.66-.58-1.41-1.37-2.78-2.18-3.89l.21-.12Zm1.81-9.4c-.25,.31-.93,.46-1.72,.52,.87,2.76,3.18,5.17,6.42,6.3l-.04,.23c-.98,.35-1.77,1.25-2.04,2.2-2.72-1.93-4.22-4.95-4.84-8.88h-2.24l-.17-.54h1.89l.75-1.19,1.99,1.37Z"/>
        <path class="cls-5" d="M231.34,3.16s1.41,1.1,2.27,1.85c-.06,.21-.27,.31-.56,.31h-11.95l-.15-.56h9.12l1.27-1.6Zm6.51-1.06c-.13,.17-.4,.35-.81,.42V15.56c0,1.58-.39,2.51-3.3,2.77-.12-.75-.27-1.29-.67-1.64-.44-.37-1-.64-2.27-.85v-.27s2.89,.19,3.43,.19c.4,0,.52-.15,.52-.46V2.14h-13.03l-.17-.56h12.99l1.08-1.23,2.24,1.75Zm-6.69,12.18c-.02,.15-1.08,.62-1.83,.62h-.39v-1.56h-4.16v1.66c0,.21-.93,.71-1.83,.71h-.33V6.9l2.25,.91h3.87l1.04-1.14,2.16,1.64c-.13,.15-.39,.33-.79,.4v5.57Zm-2.22-1.5v-4.43h-4.16v4.43h4.16Z"/>
      </g>
      <g>
        <path class="cls-1" d="M32.76,.27S24.09,1.55,15.71,9.68c0,0-4.17,4.04-3.51,7.8,.66,3.76,2.48,4.91,5.24,5.86l-.17,10.19s-9.86-.16-12.09-8.25c-2.23-8.09,6.02-15.52,7.1-16.42,1.07-.91,8.29-7.76,20.47-8.58Z"/>
        <path class="cls-8" d="M21.86,5.93s8.25-4.21,14.15-1.49c0,0,5.43,2.68,3.18,8.5-1.77,4.58-4.95,6.44-4.95,6.44l-.12,10.52s7.96-3.09,13.49-13.7c.56-1.07,3.55-9.82-4.87-14.61-2.54-1.44-10.4-2.56-20.88,4.34Z"/>
        <path class="cls-4" d="M33.17,13.78c0,3.97-3.21,7.18-7.18,7.18s-7.18-3.22-7.18-7.18,3.21-7.18,7.18-7.18,7.18,3.22,7.18,7.18Z"/>
      </g>
      <g>
        <path class="cls-5" d="M62,27.09h-.03c0-.17-.07-.31-.18-.43-.11-.12-.25-.18-.41-.18h-.12v-.1h.73v.7Zm0,5.33v.7h-.73v-.1h.12c.16,0,.3-.06,.41-.18,.11-.12,.17-.26,.18-.43h.03Zm1.35-6.04v6.74h-1.38v-6.74h1.38Zm2.53,0v.41h-2.56v-.41h2.56Zm-.45,3.22v.4h-2.11v-.4h2.11Zm.34,3.11l.22,.41h-2.67v-.41h2.45Zm.67-1.56l-.42,1.97h-1.8l.33-.41c.31,0,.57-.06,.81-.19,.23-.13,.43-.31,.6-.54,.17-.23,.3-.51,.39-.83h.09Zm-1.01-2.46v.92h-.87v-.02c.23,0,.41-.09,.56-.25s.22-.35,.22-.59v-.07h.09Zm0,1.29v.92h-.09v-.08c0-.24-.07-.43-.22-.59-.15-.15-.33-.23-.56-.24v-.02h.87Zm.45-3.77v.28l-1.12-.11c.13,0,.28,0,.43-.03,.15-.02,.29-.04,.42-.07,.13-.03,.22-.05,.28-.08Zm0,.56v1.13h-.09v-.12c0-.29-.08-.53-.25-.71-.17-.18-.4-.27-.68-.28v-.02h1.03Z"/>
        <path class="cls-5" d="M69.6,27.09h-.03c0-.17-.07-.31-.18-.43-.11-.12-.25-.18-.41-.18h-.12v-.1h.73v.7Zm0,5.33v.7h-.73v-.1h.12c.16,0,.3-.06,.41-.18,.11-.12,.17-.26,.18-.43h.03Zm1.35-6.04v6.74h-1.38v-6.74h1.38Zm-.03,.7v-.7h.73v.1h-.12c-.16,0-.29,.06-.41,.18-.11,.12-.17,.26-.18,.43h-.03Zm2.45,5.62l.22,.41h-2.67v-.41h2.45Zm.67-1.56l-.42,1.97h-1.8l.33-.41c.31,0,.57-.06,.81-.19,.23-.13,.43-.31,.6-.54,.17-.23,.3-.51,.39-.83h.09Z"/>
        <path class="cls-5" d="M77.04,27.09h-.03c0-.17-.07-.31-.18-.43-.11-.12-.25-.18-.41-.18h-.12v-.1h.73v.7Zm0,5.33v.7h-.73v-.1h.12c.16,0,.3-.06,.41-.18,.11-.12,.17-.26,.18-.43h.03Zm1.35-6.04v6.74h-1.38v-6.74h1.38Zm-.03,.7v-.7h.73v.1h-.12c-.16,0-.29,.06-.41,.18-.11,.12-.17,.26-.18,.43h-.03Zm0,5.33h.03c0,.17,.07,.31,.18,.43,.11,.12,.25,.18,.41,.18h.12v.1h-.73v-.7Z"/>
        <path class="cls-5" d="M81.43,26.2c.06,.03,.15,.05,.28,.08,.13,.03,.26,.05,.42,.07,.15,.02,.29,.03,.42,.03l-1.12,.11v-.28Zm5.87,.17v.4h-5.87v-.4h5.87Zm-4.85,.38v.03c-.28,0-.51,.1-.67,.27-.17,.18-.25,.42-.25,.72v.11h-.09s0-1.13,0-1.13h1.02Zm1.26,5.67v.7h-.73v-.1h.12c.16,0,.29-.06,.41-.18,.11-.12,.17-.26,.18-.43h.03Zm1.35-6.01v6.71h-1.38v-6.71h1.38Zm-.03,6.01h.03c0,.17,.07,.31,.18,.43,.11,.12,.25,.18,.41,.18h.12v.1h-.73v-.7Zm2.27-6.22v.28l-1.12-.11c.13,0,.28,0,.43-.03,.15-.02,.29-.04,.42-.07,.13-.03,.22-.05,.28-.08Zm0,.55v1.14h-.09v-.12c0-.3-.08-.54-.25-.72-.17-.18-.4-.27-.68-.27v-.03h1.03Z"/>
        <path class="cls-5" d="M90.37,27.09h-.03c0-.17-.07-.31-.18-.43-.11-.12-.25-.18-.41-.18h-.12v-.1h.73v.7Zm0,5.33v.7h-.73v-.1h.12c.16,0,.3-.06,.41-.18,.11-.12,.17-.26,.18-.43h.03Zm1.35-6.04v6.74h-1.38v-6.74h1.38Zm2.53,0v.41h-2.56v-.41h2.56Zm-.45,3.22v.4h-2.11v-.4h2.11Zm.34,3.11l.22,.41h-2.67v-.41h2.45Zm.67-1.56l-.42,1.97h-1.8l.33-.41c.31,0,.57-.06,.81-.19,.23-.13,.43-.31,.6-.54,.17-.23,.3-.51,.39-.83h.09Zm-1.01-2.46v.92h-.87v-.02c.23,0,.41-.09,.56-.25s.22-.35,.22-.59v-.07h.09Zm0,1.29v.92h-.09v-.08c0-.24-.07-.43-.22-.59-.15-.15-.33-.23-.56-.24v-.02h.87Zm.45-3.77v.28l-1.12-.11c.13,0,.28,0,.43-.03,.15-.02,.29-.04,.42-.07,.13-.03,.22-.05,.28-.08Zm0,.56v1.13h-.09v-.12c0-.29-.08-.53-.25-.71-.17-.18-.4-.27-.68-.28v-.02h1.03Z"/>
        <path class="cls-5" d="M102.16,27.09h-.03c0-.17-.07-.31-.18-.43-.11-.12-.25-.18-.41-.18h-.12v-.1h.73v.7Zm0,5.33v.7h-.73v-.1h.12c.16,0,.29-.06,.41-.18,.11-.12,.17-.26,.18-.43h.03Zm1.35-6.04v6.74h-1.38v-6.74h1.38Zm1.06,0c.28,0,.54,.03,.81,.1,.26,.06,.5,.17,.7,.31s.37,.33,.49,.56c.12,.23,.18,.52,.18,.86,0,.27-.05,.54-.16,.8-.11,.27-.27,.49-.49,.68-.22,.19-.5,.3-.85,.34,.2,.06,.37,.18,.54,.35,.16,.17,.29,.33,.4,.5,0,.01,.04,.07,.11,.17,.06,.1,.14,.23,.24,.38,.09,.15,.19,.3,.3,.46,.1,.15,.2,.29,.28,.4,.13,.17,.26,.31,.37,.42s.23,.18,.35,.23c.12,.05,.26,.08,.42,.08v.1h-.9c-.33,0-.63-.03-.9-.09s-.51-.17-.72-.31c-.21-.15-.39-.35-.54-.6-.05-.08-.1-.17-.16-.29s-.12-.25-.18-.38c-.06-.13-.12-.26-.18-.39-.06-.12-.11-.24-.15-.34-.04-.1-.07-.18-.09-.24-.08-.21-.17-.36-.28-.46s-.22-.16-.34-.18v-.1h.28c.17,0,.33-.04,.48-.11,.16-.07,.29-.19,.42-.35,.12-.16,.21-.38,.26-.66,.01-.06,.02-.13,.03-.2,0-.08,.01-.16,0-.26-.02-.46-.13-.8-.33-1.02-.2-.21-.45-.33-.75-.33-.09,0-.18,0-.28,0s-.19,0-.28,0h-.17s0-.04-.02-.11c-.02-.07-.04-.17-.07-.31h1.18Zm-1.09,6.04h.03c0,.17,.06,.31,.17,.43s.25,.18,.41,.18h.11v.1h-.72v-.7Z"/>
        <path class="cls-5" d="M110.71,27.09h-.03c0-.17-.07-.31-.18-.43-.11-.12-.25-.18-.41-.18h-.12v-.1h.73v.7Zm0,5.33v.7h-.73v-.1h.12c.16,0,.3-.06,.41-.18,.11-.12,.17-.26,.18-.43h.03Zm1.35-6.04v6.74h-1.38v-6.74h1.38Zm2.53,0v.41h-2.56v-.41h2.56Zm-.45,3.22v.4h-2.11v-.4h2.11Zm.34,3.11l.22,.41h-2.67v-.41h2.45Zm.67-1.56l-.42,1.97h-1.8l.33-.41c.31,0,.57-.06,.81-.19,.23-.13,.43-.31,.6-.54,.17-.23,.3-.51,.39-.83h.09Zm-1.01-2.46v.92h-.87v-.02c.23,0,.41-.09,.56-.25s.22-.35,.22-.59v-.07h.09Zm0,1.29v.92h-.09v-.08c0-.24-.07-.43-.22-.59-.15-.15-.33-.23-.56-.24v-.02h.87Zm.45-3.77v.28l-1.12-.11c.13,0,.28,0,.43-.03,.15-.02,.29-.04,.42-.07,.13-.03,.22-.05,.28-.08Zm0,.56v1.13h-.09v-.12c0-.29-.08-.53-.25-.71-.17-.18-.4-.27-.68-.28v-.02h1.03Z"/>
        <path class="cls-5" d="M118.5,32.42c-.05,.13-.06,.24-.03,.33,.03,.09,.08,.16,.16,.21,.07,.05,.15,.07,.22,.07h.08v.1h-1.96v-.1h.08c.14,0,.29-.05,.44-.14,.15-.09,.27-.25,.37-.47h.64Zm1.97-6.23l.04,1.17-2.27,5.73h-.67l2.38-5.64s.05-.11,.1-.22,.09-.23,.15-.36c.05-.13,.1-.27,.14-.39s.06-.22,.06-.29h.08Zm.96,4.64v.4h-2.7v-.4h2.7Zm-.96-4.64l3,6.87h-1.65l-1.91-5.02,.56-1.86Zm1.1,6.23h1.61c.1,.22,.23,.37,.38,.47,.15,.09,.29,.14,.43,.14h.07v.1h-2.92v-.1h.08c.12,0,.23-.05,.32-.16,.09-.11,.1-.25,.03-.45Z"/>
        <path class="cls-5" d="M126.75,27.09h-.03c0-.17-.07-.31-.18-.43-.11-.12-.25-.18-.41-.18h-.12v-.1h.73v.7Zm0,5.33v.7h-.73v-.1h.12c.16,0,.3-.06,.41-.18,.11-.12,.17-.26,.18-.43h.03Zm1.35-6.04v6.74h-1.38v-6.74h1.38Zm-.03,.7v-.7h.73v.1h-.12c-.16,0-.29,.06-.41,.18-.11,.12-.17,.26-.18,.43h-.03Zm2.45,5.62l.22,.41h-2.67v-.41h2.45Zm.67-1.56l-.42,1.97h-1.8l.33-.41c.31,0,.57-.06,.81-.19,.23-.13,.43-.31,.6-.54,.17-.23,.3-.51,.39-.83h.09Z"/>
        <path class="cls-5" d="M138.37,27.09h-.03c0-.17-.07-.31-.18-.43-.11-.12-.25-.18-.41-.18h-.12v-.1h.73v.7Zm0,5.33v.7h-.73v-.1h.12c.16,0,.3-.06,.41-.18,.11-.12,.17-.26,.18-.43h.03Zm1.35-6.04v6.74h-1.38v-6.74h1.38Zm2.53,0v.41h-2.56v-.41h2.56Zm-.45,3.22v.4h-2.11v-.4h2.11Zm.34,3.11l.22,.41h-2.67v-.41h2.45Zm.67-1.56l-.42,1.97h-1.8l.33-.41c.31,0,.57-.06,.81-.19,.23-.13,.43-.31,.6-.54,.17-.23,.3-.51,.39-.83h.09Zm-1.01-2.46v.92h-.87v-.02c.23,0,.41-.09,.56-.25s.22-.35,.22-.59v-.07h.09Zm0,1.29v.92h-.09v-.08c0-.24-.07-.43-.22-.59-.15-.15-.33-.23-.56-.24v-.02h.87Zm.45-3.77v.28l-1.12-.11c.13,0,.28,0,.43-.03,.15-.02,.29-.04,.42-.07,.13-.03,.22-.05,.28-.08Zm0,.56v1.13h-.09v-.12c0-.29-.08-.53-.25-.71-.17-.18-.4-.27-.68-.28v-.02h1.03Z"/>
        <path class="cls-5" d="M147.43,26.25c.12,0,.27,0,.45,.02,.18,.01,.37,.03,.56,.05s.36,.04,.5,.07c.14,.02,.24,.05,.3,.07l-.11,1.3h-.09c0-.33-.12-.6-.35-.8-.24-.2-.55-.3-.94-.3-.35,0-.64,.09-.86,.27s-.33,.4-.34,.65c0,.19,.05,.36,.17,.5,.12,.14,.28,.27,.47,.4l1.75,1.19c.28,.17,.49,.39,.64,.65,.14,.27,.21,.58,.19,.94-.03,.63-.26,1.12-.69,1.47-.43,.35-1.01,.52-1.74,.52-.27,0-.53-.02-.78-.07-.25-.05-.48-.12-.67-.2-.2-.09-.35-.19-.47-.31-.05-.14-.07-.31-.06-.51,0-.2,.03-.4,.09-.61,.05-.21,.12-.38,.2-.51h.08c-.02,.33,.03,.63,.17,.91,.14,.28,.34,.5,.61,.66,.27,.16,.58,.24,.95,.24,.4,0,.72-.11,.94-.32,.22-.21,.33-.46,.33-.76,0-.2-.06-.38-.17-.54-.11-.16-.3-.31-.55-.46l-1.61-1.12c-.32-.19-.56-.44-.71-.74-.15-.3-.21-.63-.17-.98,.03-.33,.13-.63,.28-.88,.16-.25,.38-.45,.66-.59,.28-.14,.61-.21,1-.21Zm1.83,.1l-.02,.2h-1.08v-.2h1.1Z"/>
        <path class="cls-5" d="M152.15,26.2c.06,.03,.15,.05,.28,.08,.13,.03,.26,.05,.42,.07,.15,.02,.29,.03,.42,.03l-1.12,.11v-.28Zm5.87,.17v.4h-5.87v-.4h5.87Zm-4.85,.38v.03c-.28,0-.51,.1-.67,.27-.17,.18-.25,.42-.25,.72v.11h-.09s0-1.13,0-1.13h1.02Zm1.26,5.67v.7h-.73v-.1h.12c.16,0,.29-.06,.41-.18,.11-.12,.17-.26,.18-.43h.03Zm1.35-6.01v6.71h-1.38v-6.71h1.38Zm-.03,6.01h.03c0,.17,.07,.31,.18,.43,.11,.12,.25,.18,.41,.18h.12v.1h-.73v-.7Zm2.27-6.22v.28l-1.12-.11c.13,0,.28,0,.43-.03,.15-.02,.29-.04,.42-.07,.13-.03,.22-.05,.28-.08Zm0,.55v1.14h-.09v-.12c0-.3-.08-.54-.25-.72-.17-.18-.4-.27-.68-.27v-.03h1.03Z"/>
        <path class="cls-5" d="M160.44,32.42c-.05,.13-.06,.24-.03,.33,.03,.09,.08,.16,.16,.21,.07,.05,.15,.07,.22,.07h.08v.1h-1.96v-.1h.08c.14,0,.29-.05,.44-.14,.15-.09,.27-.25,.37-.47h.64Zm1.97-6.23l.04,1.17-2.27,5.73h-.67l2.38-5.64s.05-.11,.1-.22,.09-.23,.15-.36c.05-.13,.1-.27,.14-.39s.06-.22,.06-.29h.08Zm.96,4.64v.4h-2.7v-.4h2.7Zm-.96-4.64l3,6.87h-1.65l-1.91-5.02,.56-1.86Zm1.1,6.23h1.61c.1,.22,.23,.37,.38,.47,.15,.09,.29,.14,.43,.14h.07v.1h-2.92v-.1h.08c.12,0,.23-.05,.32-.16,.09-.11,.1-.25,.03-.45Z"/>
        <path class="cls-5" d="M166.9,26.2c.06,.03,.15,.05,.28,.08,.13,.03,.26,.05,.42,.07,.15,.02,.29,.03,.42,.03l-1.12,.11v-.28Zm5.87,.17v.4h-5.87v-.4h5.87Zm-4.85,.38v.03c-.28,0-.51,.1-.67,.27-.17,.18-.25,.42-.25,.72v.11h-.09s0-1.13,0-1.13h1.02Zm1.26,5.67v.7h-.73v-.1h.12c.16,0,.29-.06,.41-.18,.11-.12,.17-.26,.18-.43h.03Zm1.35-6.01v6.71h-1.38v-6.71h1.38Zm-.03,6.01h.03c0,.17,.07,.31,.18,.43,.11,.12,.25,.18,.41,.18h.12v.1h-.73v-.7Zm2.27-6.22v.28l-1.12-.11c.13,0,.28,0,.43-.03,.15-.02,.29-.04,.42-.07,.13-.03,.22-.05,.28-.08Zm0,.55v1.14h-.09v-.12c0-.3-.08-.54-.25-.72-.17-.18-.4-.27-.68-.27v-.03h1.03Z"/>
        <path class="cls-5" d="M175.84,27.09h-.03c0-.17-.07-.31-.18-.43-.11-.12-.25-.18-.41-.18h-.12v-.1h.73v.7Zm0,5.33v.7h-.73v-.1h.12c.16,0,.3-.06,.41-.18,.11-.12,.17-.26,.18-.43h.03Zm1.35-6.04v6.74h-1.38v-6.74h1.38Zm2.53,0v.41h-2.56v-.41h2.56Zm-.45,3.22v.4h-2.11v-.4h2.11Zm.34,3.11l.22,.41h-2.67v-.41h2.45Zm.67-1.56l-.42,1.97h-1.8l.33-.41c.31,0,.57-.06,.81-.19,.23-.13,.43-.31,.6-.54,.17-.23,.3-.51,.39-.83h.09Zm-1.01-2.46v.92h-.87v-.02c.23,0,.41-.09,.56-.25s.22-.35,.22-.59v-.07h.09Zm0,1.29v.92h-.09v-.08c0-.24-.07-.43-.22-.59-.15-.15-.33-.23-.56-.24v-.02h.87Zm.45-3.77v.28l-1.12-.11c.13,0,.28,0,.43-.03,.15-.02,.29-.04,.42-.07,.13-.03,.22-.05,.28-.08Zm0,.56v1.13h-.09v-.12c0-.29-.08-.53-.25-.71-.17-.18-.4-.27-.68-.28v-.02h1.03Z"/>
        <path class="cls-5" d="M187.76,32.42c-.05,.13-.06,.24-.03,.33,.03,.09,.08,.16,.16,.21,.07,.05,.15,.07,.22,.07h.08v.1h-1.96v-.1h.08c.14,0,.29-.05,.44-.14,.15-.09,.27-.25,.37-.47h.64Zm1.97-6.23l.04,1.17-2.27,5.73h-.67l2.38-5.64s.05-.11,.1-.22,.09-.23,.15-.36c.05-.13,.1-.27,.14-.39s.06-.22,.06-.29h.08Zm.96,4.64v.4h-2.7v-.4h2.7Zm-.96-4.64l3,6.87h-1.65l-1.91-5.02,.56-1.86Zm1.1,6.23h1.61c.1,.22,.23,.37,.38,.47,.15,.09,.29,.14,.43,.14h.07v.1h-2.92v-.1h.08c.12,0,.23-.05,.32-.16,.09-.11,.1-.25,.03-.45Z"/>
        <path class="cls-5" d="M201.53,30.43v1.59c-.15,.19-.37,.39-.66,.58-.29,.19-.64,.35-1.04,.48-.4,.12-.85,.19-1.35,.19-.7,0-1.31-.14-1.83-.43s-.92-.69-1.21-1.22c-.29-.53-.43-1.15-.43-1.87s.14-1.34,.43-1.86,.69-.92,1.22-1.21c.53-.29,1.15-.43,1.88-.43,.34,0,.66,.02,.98,.07,.32,.05,.61,.11,.88,.19,.27,.08,.49,.17,.67,.27l.02,1.65h-.08c-.12-.44-.28-.78-.5-1.04-.22-.26-.48-.45-.77-.56s-.6-.17-.92-.17c-.5,0-.92,.13-1.26,.38s-.61,.61-.78,1.08c-.17,.47-.26,1.03-.26,1.69,0,.62,.08,1.15,.24,1.61,.16,.46,.4,.81,.71,1.06,.31,.25,.69,.37,1.14,.38,.23,0,.45-.04,.66-.11s.4-.18,.55-.32c.16-.14,.27-.31,.34-.52v-1.47c0-.29-.15-.43-.46-.43h-.15v-.1h2.58v.1h-.14c-.32,0-.47,.14-.46,.43Z"/>
        <path class="cls-5" d="M204.99,27.09h-.03c0-.17-.07-.31-.18-.43-.11-.12-.25-.18-.41-.18h-.12v-.1h.73v.7Zm0,5.33v.7h-.73v-.1h.12c.16,0,.3-.06,.41-.18,.11-.12,.17-.26,.18-.43h.03Zm1.35-6.04v6.74h-1.38v-6.74h1.38Zm2.53,0v.41h-2.56v-.41h2.56Zm-.45,3.22v.4h-2.11v-.4h2.11Zm.34,3.11l.22,.41h-2.67v-.41h2.45Zm.67-1.56l-.42,1.97h-1.8l.33-.41c.31,0,.57-.06,.81-.19,.23-.13,.43-.31,.6-.54,.17-.23,.3-.51,.39-.83h.09Zm-1.01-2.46v.92h-.87v-.02c.23,0,.41-.09,.56-.25s.22-.35,.22-.59v-.07h.09Zm0,1.29v.92h-.09v-.08c0-.24-.07-.43-.22-.59-.15-.15-.33-.23-.56-.24v-.02h.87Zm.45-3.77v.28l-1.12-.11c.13,0,.28,0,.43-.03,.15-.02,.29-.04,.42-.07,.13-.03,.22-.05,.28-.08Zm0,.56v1.13h-.09v-.12c0-.29-.08-.53-.25-.71-.17-.18-.4-.27-.68-.28v-.02h1.03Z"/>
        <path class="cls-5" d="M212.51,32.44v.68h-.76v-.1h.17c.15,0,.28-.06,.39-.17,.11-.12,.17-.25,.17-.41h.03Zm-.05-6.2l1.32,1.47v5.41s-1.3,0-1.3,0v-5.68c0-.36-.04-.76-.11-1.2h.09Zm0,0l5.85,5.85,.11,1.17-5.85-5.84-.11-1.17Zm1.33,6.2c0,.16,.05,.3,.17,.41s.24,.17,.39,.17h.17v.1h-.76v-.68h.03Zm2.56-6.06h.76v.68h-.02c0-.17-.06-.31-.17-.42s-.24-.17-.4-.17h-.17v-.1Zm2.05,0v5.64c0,.24,0,.45,.03,.64,.02,.19,.05,.39,.08,.59h-.08l-1.33-1.56v-5.31h1.3Zm.73,0v.1h-.17c-.15,0-.28,.06-.39,.17-.11,.11-.17,.25-.17,.42h-.03v-.68h.76Z"/>
        <path class="cls-5" d="M227.71,30.31l.08,1.66c-.13,.24-.31,.45-.54,.65s-.51,.35-.84,.47c-.34,.12-.73,.18-1.19,.18-.75,0-1.4-.15-1.96-.43-.56-.28-.99-.68-1.3-1.2-.31-.52-.46-1.15-.46-1.89s.15-1.34,.45-1.86c.3-.52,.73-.93,1.29-1.21,.56-.28,1.23-.42,2-.42,.49,0,.93,.05,1.32,.15,.39,.1,.71,.23,.98,.38v1.65s-.07,0-.07,0c-.17-.64-.43-1.09-.81-1.36-.37-.27-.81-.41-1.31-.41s-.91,.12-1.26,.38-.62,.6-.81,1.06c-.19,.46-.28,1-.28,1.64s.09,1.18,.27,1.65c.18,.46,.44,.82,.77,1.08s.73,.39,1.18,.4c.47,0,.87-.08,1.19-.24,.32-.16,.59-.43,.78-.8,.2-.37,.35-.87,.44-1.5h.07Z"/>
        <path class="cls-5" d="M232.38,27.08l-1.55-.03c-.09-.15-.21-.28-.38-.4s-.35-.17-.54-.17h-.13v-.1h3.04v.1h-.12c-.13,0-.24,.07-.31,.2-.07,.13-.07,.27-.01,.4Zm-.36-.68l1.88,3.58-1.3,.13-2.15-3.72h1.57Zm.58,6.03v.7h-.73v-.1h.12c.16,0,.29-.06,.41-.18,.11-.12,.17-.26,.18-.43h.03Zm1.35-2.4v3.1h-1.38v-3.1h1.38Zm1.48-3.63h.72l-2.28,3.82-.47-.1,2.04-3.73Zm-1.5,6.03h.03c0,.17,.06,.31,.17,.43,.12,.12,.25,.18,.41,.18h.11v.1h-.72v-.7Zm1.13-5.34c.06-.09,.07-.18,.05-.27-.02-.09-.07-.17-.14-.23-.07-.06-.14-.09-.23-.09h-.11v-.1h2.19v.1h-.13c-.19,0-.37,.06-.54,.17s-.3,.25-.39,.4l-.71,.03Z"/>
      </g>
    </g>
  </g>
</svg>