<?xml version="1.0" encoding="UTF-8"?>
<svg id="_圖層_2" data-name="圖層 2" xmlns="http://www.w3.org/2000/svg" xmlns:xlink="http://www.w3.org/1999/xlink" viewBox="0 0 1920 636.41">
  <defs>
    <style>
      .cls-1 {
        fill: #ce192c;
      }

      .cls-2 {
        letter-spacing: .17em;
      }

      .cls-3 {
        fill: #d8d8d8;
      }

      .cls-4 {
        letter-spacing: .11em;
      }

      .cls-5 {
        stroke: #757575;
      }

      .cls-5, .cls-6 {
        fill: none;
        stroke-miterlimit: 10;
      }

      .cls-7 {
        letter-spacing: .2em;
      }

      .cls-8 {
        font-family: NotoSerifTC-Bold-90ms-RKSJ-H, 'Noto Serif TC';
        font-size: 19.26px;
        letter-spacing: .18em;
      }

      .cls-8, .cls-9, .cls-10 {
        fill: #4f4f4f;
      }

      .cls-11 {
        letter-spacing: .19em;
      }

      .cls-9 {
        font-family: CinzelRoman-Bold, Cinzel;
        font-size: 9.63px;
        font-variation-settings: 'wght' 700;
      }

      .cls-12 {
        fill: url(#radial-gradient);
      }

      .cls-13 {
        letter-spacing: .2em;
      }

      .cls-6 {
        stroke: #232323;
      }

      .cls-14 {
        letter-spacing: .17em;
      }

      .cls-15 {
        letter-spacing: .2em;
      }

      .cls-16 {
        fill: #232323;
        font-family: NotoSerifTC-SemiBold-90ms-RKSJ-H, 'Noto Serif TC';
        font-size: 17px;
        glyph-orientation-vertical: 0deg;
        letter-spacing: .4em;
        text-orientation: upright;
        writing-mode: tb;
      }

      .cls-17 {
        letter-spacing: .18em;
      }

      .cls-18 {
        fill: #231815;
      }

      .cls-19 {
        fill: #362967;
      }

      .cls-20 {
        letter-spacing: .19em;
      }
    </style>
    <radialGradient id="radial-gradient" cx="159" cy="36.86" fx="159" fy="36.86" r="10.8" gradientUnits="userSpaceOnUse">
      <stop offset=".07" stop-color="#b3cf82"/>
      <stop offset=".09" stop-color="#8ec46d"/>
      <stop offset=".12" stop-color="#6db95a"/>
      <stop offset=".15" stop-color="#54b24b"/>
      <stop offset=".18" stop-color="#41ac40"/>
      <stop offset=".22" stop-color="#36a93a"/>
      <stop offset=".25" stop-color="#33a838"/>
      <stop offset=".43" stop-color="#33a838"/>
      <stop offset=".59" stop-color="#1e8837"/>
      <stop offset=".74" stop-color="#107137"/>
      <stop offset=".83" stop-color="#0b6937"/>
    </radialGradient>
  </defs>
  <g id="text">
    <g>
      <rect class="cls-3" width="1920" height="80"/>
      <g>
        <line class="cls-5" x1="1739.9" y1="28.26" x2="1790.03" y2="28.26"/>
        <line class="cls-5" x1="1739.9" y1="40" x2="1790.03" y2="40"/>
        <line class="cls-5" x1="1764.97" y1="51.74" x2="1790.03" y2="51.74"/>
      </g>
    </g>
    <g>
      <text class="cls-16" transform="translate(1782.91 379.3)"><tspan x="0" y="0">體貼入心</tspan><tspan x="0" y="95.2" xml:space="preserve">      </tspan><tspan x="0" y="161.91">更甚於家</tspan></text>
      <line class="cls-6" x1="1782.9" y1="529.21" x2="1782.9" y2="479.08"/>
    </g>
    <g>
      <text class="cls-16" transform="translate(138.69 379.3)"><tspan x="0" y="0">以客為尊</tspan><tspan x="0" y="95.2" xml:space="preserve">      </tspan><tspan x="0" y="161.91">服務大眾</tspan></text>
      <line class="cls-6" x1="138.69" y1="529.21" x2="138.69" y2="479.08"/>
    </g>
    <g>
      <g>
        <path class="cls-18" d="M456,32.04c.67,.76,1.01,1.75,1.01,2.98h.88v-6.79h-.88v.31c0,.85-.25,1.27-.74,1.27-.29,0-.68-.08-1.16-.24-.48-.16-1.07-.34-1.77-.55-.7-.2-1.51-.39-2.43-.55-.92-.16-1.98-.24-3.18-.24h-8.43c-2.45,0-4.7,.39-6.73,1.18-2.03,.79-3.76,1.9-5.19,3.33-1.43,1.43-2.54,3.16-3.33,5.19-.79,2.03-1.18,4.27-1.18,6.73s.39,4.7,1.18,6.73c.79,2.03,1.9,3.76,3.33,5.19,1.43,1.43,3.16,2.54,5.19,3.33,2.03,.79,4.27,1.18,6.73,1.18h8.16l.14-.03c3.1-.14,5.54-.87,7.32-2.18,1.99-1.47,2.98-3.45,2.98-5.94,0-1.64-.34-3.03-1.01-4.18-.67-1.15-1.54-2.14-2.61-2.96-1.07-.82-2.26-1.5-3.57-2.06-.46-.19-.92-.38-1.38-.56h0c-.6-.23-1.2-.45-1.79-.65l-.33-.14c-.48-.16-.94-.33-1.38-.51h0c-2.04-.74-3.64-1.63-4.8-2.67-1.29-1.15-1.93-2.46-1.93-3.92,0-.85,.12-1.64,.37-2.39,.25-.74,.68-1.4,1.29-1.97,.61-.57,1.42-1.01,2.43-1.34,.41-.13,.86-.23,1.35-.31,.11,.03,.22,.07,.32,.11,.29,.13,.53,.34,.7,.64,.18,.29,.26,.7,.26,1.23v9.83c.52,.22,1.06,.42,1.65,.62l.34,.14c.5,.17,1.01,.35,1.52,.55v-10.56c0-.67-.15-1.52,.61-2.05,.42-.29,1.09-.28,1.61-.21,.69,.17,1.36,.39,2.01,.69,.96,.44,1.78,1.04,2.45,1.8Zm-17.48-1.82c-1.99,1.33-2.98,3.25-2.98,5.76,0,1.2,.26,2.27,.79,3.22,.53,.95,1.26,1.81,2.19,2.59,.64,.53,1.37,1.02,2.18,1.47,.27,.14,.55,.29,.83,.42,1.25,.59,2.63,1.14,4.1,1.63l.49,.18c1.49,.51,2.74,1.06,3.73,1.63,.18,.1,.36,.2,.53,.3,1.01,.61,1.8,1.25,2.39,1.91,.58,.66,.99,1.32,1.21,1.99,.22,.67,.33,1.33,.33,1.97,0,.88-.12,1.72-.37,2.54-.25,.82-.67,1.56-1.27,2.21-.21,.23-.46,.45-.73,.65-.4,.17-1.04,.38-1.6,.21-.88-.27-1-.73-1-1.4v-9.82c-.92-.51-2.08-1.01-3.45-1.49l-.05-.02v11.9c0,.53-.09,.94-.26,1.23-.18,.29-.41,.5-.7,.64-.29,.13-.61,.21-.96,.24-.35,.03-.7,.04-1.05,.04h-3.55c-1.93,0-3.69-.45-5.28-1.34-1.59-.89-2.94-2.07-4.05-3.53-1.11-1.46-1.97-3.13-2.59-4.99-.61-1.87-.92-3.77-.92-5.7s.31-3.83,.92-5.7c.61-1.87,1.48-3.53,2.59-5,1.11-1.46,2.46-2.64,4.05-3.53,1.59-.89,3.35-1.34,5.28-1.34h1.55c-.87,.3-1.64,.67-2.32,1.12Z"/>
        <g>
          <g>
            <path class="cls-10" d="M470.15,60.7v-.31l.96-.09c0-.42,0-.85,0-1.28v-3.83c0-.43,0-.86,0-1.29l-.96-.08v-.31h3.04c.76,0,1.42,.14,1.96,.42,.54,.28,.96,.69,1.25,1.23,.29,.53,.43,1.18,.43,1.93s-.15,1.39-.45,1.92c-.3,.54-.74,.95-1.31,1.25-.57,.29-1.25,.44-2.04,.44h-2.88Zm2.19-.34h.63c.85,0,1.49-.29,1.94-.86,.45-.58,.67-1.37,.67-2.39s-.22-1.87-.66-2.42c-.44-.55-1.06-.83-1.87-.83h-.72c0,.44-.01,.88-.02,1.33v3.83c0,.45,.01,.9,.02,1.35Z"/>
            <path class="cls-10" d="M478.98,60.7v-.33l1.03-.07c0-.43,0-.86,0-1.3v-3.92c0-.44,0-.87,0-1.3l-1.03-.07v-.33h3.58c.83,0,1.47,.16,1.92,.48,.44,.32,.67,.78,.67,1.39,0,.31-.09,.61-.26,.9-.17,.28-.44,.52-.79,.7-.25,.13-.56,.22-.91,.27,.14,.03,.27,.06,.38,.08,.25,.07,.44,.17,.59,.29,.14,.12,.26,.28,.35,.46,.09,.18,.17,.39,.24,.63l.6,1.73,1.05,.07v.33c-.13,.03-.25,.05-.36,.07-.11,.02-.22,.04-.34,.05-.11,.01-.24,.02-.38,.02-.41,0-.72-.07-.92-.21-.2-.14-.34-.36-.41-.68l-.51-1.51c-.08-.24-.16-.45-.25-.61-.09-.17-.2-.29-.35-.39-.15-.09-.35-.14-.61-.14h-1.03c0,.58,0,1.14,0,1.68,0,.44,0,.87,0,1.3l1.12,.08v.33h-3.38Zm2.24-3.75h1.12c.36,0,.66-.08,.89-.23,.24-.15,.41-.35,.53-.59,.12-.24,.18-.51,.18-.81,0-.49-.14-.88-.42-1.16-.28-.29-.71-.43-1.28-.43h-1c0,.45,0,.9,0,1.36,0,.57,0,1.19,0,1.85Z"/>
            <path class="cls-10" d="M488.06,60.7v-.31l.96-.09c0-.42,0-.84,0-1.26v-3.86c0-.43,0-.86,0-1.28l-.96-.08v-.31h5.36l.04,1.84h-.49l-.33-1.48h-2.39c0,.43-.01,.87-.02,1.31v1.69h1.56l.13-1.03h.41v2.36h-.41l-.12-.99h-1.57v1.8c0,.45,.01,.89,.02,1.34h2.56l.35-1.53h.47l-.03,1.89h-5.55Z"/>
            <path class="cls-10" d="M495.4,60.7v-.31l.83-.11,2.27-6.82h.74l2.33,6.85,.81,.08v.31h-3.06v-.31l1.03-.1-.63-1.98h-2.41l-.62,1.97,.93,.11v.31h-2.2Zm4.2-2.71l-1.11-3.45-1.09,3.45h2.2Z"/>
            <path class="cls-10" d="M504.01,60.7v-.31l1.02-.12,.02-6.36-.97-.09v-.31h2.2l2.23,5.65,2.2-5.65h2.18v.31l-.93,.08c-.01,.42-.02,.85-.02,1.28v3.86c0,.42,0,.84,.02,1.26l.95,.09v.31h-3.12v-.31l.94-.09c0-.42,0-.84,0-1.25,0-.55,0-1.06,0-1.54l.03-3.15-2.45,6.34h-.4l-2.52-6.34,.05,2.72v3.19l1.05,.12v.31h-2.49Z"/>
            <path class="cls-10" d="M524.63,60.87c-.4,0-.79-.05-1.18-.16-.39-.11-.71-.25-.97-.42l.06-1.56h.48l.36,1.53c.1,.04,.19,.08,.28,.11,.25,.08,.54,.12,.87,.12,.51,0,.91-.12,1.21-.35,.3-.23,.45-.56,.45-1,0-.23-.04-.43-.12-.6-.08-.17-.21-.32-.39-.45-.18-.13-.44-.27-.76-.41l-.44-.19c-.6-.27-1.07-.57-1.39-.91-.32-.34-.48-.78-.48-1.32,0-.42,.11-.78,.32-1.06,.21-.29,.5-.5,.87-.65,.37-.15,.78-.22,1.25-.22,.38,0,.72,.05,1.03,.14,.31,.09,.58,.23,.83,.4l-.06,1.48h-.48l-.35-1.46s-.09-.05-.13-.06c-.2-.08-.44-.12-.72-.12-.45,0-.81,.11-1.09,.32-.28,.21-.42,.52-.42,.92,0,.35,.1,.63,.3,.85,.2,.22,.49,.4,.86,.56l.47,.2c.49,.21,.88,.42,1.17,.63,.29,.21,.5,.45,.62,.7,.12,.25,.18,.55,.18,.91,0,.42-.1,.78-.31,1.09-.21,.31-.51,.55-.9,.72-.39,.17-.87,.26-1.41,.26Z"/>
            <path class="cls-10" d="M530.43,60.7v-.31l1.06-.09c0-.42,.01-.84,.02-1.26v-3.86c0-.44-.01-.87-.02-1.31h-1.64l-.37,1.6h-.48l.06-1.96h6.1l.07,1.96h-.48l-.37-1.6h-1.66c0,.43,0,.87,0,1.3,0,.57,0,1.13,0,1.69v.49c0,.56,0,1.12,0,1.68,0,.42,0,.85,0,1.27l1.07,.09v.31h-3.36Z"/>
            <path class="cls-10" d="M540.37,60.87c-.44,0-.86-.08-1.26-.25-.4-.17-.75-.41-1.06-.73-.31-.32-.55-.71-.73-1.18-.18-.47-.27-1.01-.27-1.62s.09-1.13,.27-1.6c.18-.47,.42-.87,.73-1.19,.31-.32,.66-.57,1.06-.73,.4-.17,.82-.25,1.26-.25s.87,.08,1.27,.24c.39,.16,.75,.4,1.05,.73,.31,.32,.55,.72,.73,1.19,.18,.47,.27,1.01,.27,1.61s-.09,1.14-.27,1.61c-.18,.47-.42,.86-.73,1.19-.31,.32-.66,.57-1.05,.73-.39,.17-.82,.25-1.27,.25Zm0-.35c.34,0,.64-.09,.9-.26,.25-.18,.47-.42,.63-.73,.17-.31,.3-.67,.38-1.09,.09-.42,.13-.86,.13-1.34s-.04-.92-.13-1.33c-.09-.41-.21-.78-.38-1.09-.17-.31-.38-.56-.63-.73-.25-.17-.55-.26-.9-.26s-.64,.09-.9,.26c-.26,.17-.47,.41-.64,.73-.17,.31-.29,.68-.38,1.09-.08,.41-.13,.86-.13,1.33s.04,.92,.13,1.34,.21,.78,.38,1.09c.17,.31,.38,.55,.64,.73,.26,.17,.56,.26,.9,.26Z"/>
            <path class="cls-10" d="M545.66,60.7v-.31l.94-.12v-6.29l-.06-.09-.87-.07v-.31h2l3.8,5.57-.03-2.58v-2.56l-1.24-.12v-.31h2.59v.31l-.96,.12v6.81h-.61l-4.26-6.22,.07,3.42v2.33l1.21,.12v.31h-2.59Z"/>
            <path class="cls-10" d="M554.78,60.7v-.31l.96-.09c0-.42,0-.84,0-1.26v-3.86c0-.43,0-.86,0-1.28l-.96-.08v-.31h5.36l.04,1.84h-.49l-.33-1.48h-2.39c0,.43-.01,.87-.02,1.31v1.69h1.56l.13-1.03h.41v2.36h-.41l-.12-.99h-1.57v1.8c0,.45,.01,.89,.02,1.34h2.56l.35-1.53h.47l-.03,1.89h-5.55Z"/>
          </g>
          <g>
            <path class="cls-10" d="M469.74,29.35h14.37l1.28-1.58,.23,.18c.16,.11,.36,.27,.61,.46,.25,.19,.51,.39,.77,.61,.27,.21,.51,.41,.73,.6-.05,.21-.23,.31-.54,.31h-8.92c-.45,1.27-1.04,2.54-1.78,3.79-.38,.64-.79,1.25-1.23,1.84l.82,.3h7.54l.98-1.09,2.11,1.62c-.08,.09-.19,.17-.35,.25-.16,.08-.35,.14-.56,.2v7.99s-.11,.1-.3,.2c-.18,.09-.4,.18-.65,.25-.25,.07-.49,.11-.73,.11h-.29v-1.77h-8.02v1.34c0,.06-.14,.18-.42,.34s-.67,.24-1.16,.24h-.33v-8.32c-.14,.15-.29,.31-.45,.47-1.17,1.23-2.48,2.3-3.94,3.19l-.18-.2c.82-.74,1.59-1.57,2.3-2.47,.71-.9,1.35-1.85,1.93-2.84,.58-.99,1.06-2,1.47-3.01,.32-.82,.59-1.63,.78-2.42h-5.9l-.16-.57Zm6.08,7.08v6.64h8.02v-6.64h-8.02Z"/>
            <path class="cls-10" d="M504.63,36.43c-.05,.11-.18,.2-.39,.25-.12,.04-.25,.04-.37,.02-.32,.45-.72,.92-1.19,1.41-.56,.61-1.18,1.23-1.85,1.86-.67,.63-1.36,1.21-2.07,1.76-.48,.38-.94,.71-1.4,1.01,.34,0,.72,0,1.14-.02,.92-.03,1.99-.06,3.19-.11,1.21-.05,2.49-.11,3.84-.18,.92-.04,1.86-.08,2.82-.13-.18-.3-.38-.6-.57-.92-.4-.62-.82-1.23-1.26-1.82-.44-.59-.87-1.12-1.3-1.61l.22-.15c1.15,.55,2.1,1.11,2.87,1.7,.77,.59,1.39,1.16,1.85,1.73,.46,.57,.79,1.11,.99,1.61s.3,.96,.29,1.36c0,.4-.09,.71-.26,.94-.17,.23-.4,.35-.68,.36-.29,.01-.6-.11-.93-.37-.16-.6-.39-1.21-.71-1.83-.08-.17-.16-.34-.26-.5-1.2,.22-2.62,.48-4.28,.76-2.11,.36-4.51,.73-7.18,1.12-.17,.24-.36,.38-.58,.45l-.8-2.52,.15-.04c.1-.01,.21-.04,.33-.09s.22-.1,.28-.15c.47-.34,.97-.81,1.5-1.42,.53-.61,1.05-1.27,1.57-1.98,.52-.71,.98-1.41,1.38-2.11,.35-.59,.64-1.11,.86-1.58h-7.61l-.15-.57h14.58l1.27-1.62,.23,.18c.16,.12,.36,.27,.6,.47,.24,.2,.5,.4,.76,.62,.27,.21,.51,.42,.73,.62-.05,.21-.23,.31-.54,.31h-9.31l2.23,1.19Zm3.34-8.7l.23,.18c.16,.11,.36,.26,.6,.45,.24,.19,.49,.38,.74,.6,.25,.21,.49,.41,.72,.6-.06,.21-.24,.31-.55,.31h-13.45l-.15-.57h10.61l1.25-1.57Z"/>
            <path class="cls-10" d="M522.01,29.29l.88-.9,1.8,1.6c-.12,.11-.3,.2-.52,.26-.12,.01-.25,.03-.37,.04-.12,.26-.26,.56-.41,.9-.24,.48-.48,1-.74,1.54-.26,.54-.52,1.06-.78,1.55-.13,.27-.26,.52-.37,.74h1.23l.95-.99,1.75,1.51c-.12,.15-.37,.25-.74,.29-.13,.98-.33,1.94-.59,2.87-.26,.93-.62,1.82-1.09,2.65-.04,.08-.09,.15-.12,.23,.3,.2,.61,.37,.95,.52,1,.44,2.18,.73,3.53,.88,1.36,.15,2.92,.22,4.7,.22h2.26c.45,0,.88,0,1.31,0,.43,0,.8,0,1.11,0v.24c-.39,.08-.68,.26-.88,.56-.2,.3-.31,.64-.33,1.02h-3.64c-1.82,0-3.42-.11-4.8-.32-1.38-.21-2.57-.6-3.58-1.17-.47-.26-.9-.58-1.29-.95-.3,.39-.63,.76-1,1.11-.73,.71-1.63,1.33-2.71,1.86l-.16-.26c1.09-.81,1.96-1.75,2.59-2.83,.15-.26,.3-.53,.43-.8-.15-.18-.28-.37-.39-.56-.71-1.07-1.3-2.46-1.78-4.16l.26-.13c.5,1.39,1.09,2.52,1.79,3.38,.17,.2,.35,.38,.53,.54,.22-.56,.4-1.15,.54-1.76,.26-1.09,.45-2.21,.56-3.34h-1.54l-.65,.6-1.64-1.14c.13-.09,.3-.18,.51-.29,.06-.03,.13-.05,.2-.09,.13-.24,.27-.52,.43-.82,.26-.52,.52-1.06,.79-1.63s.52-1.11,.75-1.64c.12-.27,.22-.52,.31-.74h-3.34l-.17-.57h3.49Zm10.37,.22l.88-.98,1.87,1.45c-.05,.06-.15,.13-.29,.2-.14,.07-.3,.13-.48,.17v1.68h.23l.88-1.35,.28,.27c.18,.19,.4,.4,.64,.65,.24,.25,.46,.48,.64,.69-.05,.2-.23,.31-.53,.31h-2.15v2.74c0,.05-.09,.12-.26,.2-.17,.08-.37,.15-.6,.21-.23,.06-.44,.09-.65,.09h-.28v-.64h-2.17v2h2.17l1-1.32,.19,.16c.13,.1,.29,.23,.48,.39,.19,.16,.38,.33,.59,.51,.21,.18,.4,.35,.59,.51-.05,.21-.23,.31-.52,.31h-4.5v2.05h2.8l1.11-1.4,.22,.15c.14,.11,.32,.26,.53,.43,.22,.17,.44,.35,.68,.54,.24,.19,.45,.37,.65,.54-.03,.1-.1,.18-.19,.23-.1,.05-.22,.08-.36,.08h-5.43v1.94c0,.05-.07,.12-.21,.2-.14,.09-.33,.16-.55,.22-.22,.06-.46,.1-.71,.1h-.37v-2.46h-4.28l-.16-.56h4.44v-2.05h-3.32l-.15-.56h3.47v-2h-3.08l-.18-.57h3.26v-2.01h-4.59l-.15-.56h4.74v-1.98h-3.21l-.17-.54h3.38v-2.14l2.57,.26c-.01,.13-.07,.25-.17,.34-.1,.1-.28,.16-.56,.2v1.34h1.98Zm-1.98,.54v1.98h2.17v-1.98h-2.17Zm0,2.54v2.01h2.17v-2.01h-2.17Z"/>
            <path class="cls-10" d="M549.86,29.72l.3,.24c.2,.15,.43,.34,.69,.56,.26,.22,.5,.44,.73,.65-.06,.21-.24,.32-.53,.32h-7.76l-.15-.57h5.78l.95-1.19Zm6.24-1.01l.92-.96,1.72,1.43c-.11,.13-.36,.22-.73,.28v3.53c0,.11,.02,.18,.07,.23,.05,.04,.13,.07,.26,.07h.95c.11,0,.19,0,.24-.02h.35c.06-.01,.13-.03,.2-.04,.07-.01,.14-.03,.21-.04h.18l.08,.02c.22,.09,.38,.19,.48,.29,.1,.11,.14,.24,.14,.42,0,.32-.18,.58-.52,.76-.35,.18-.99,.27-1.92,.27h-.95c-.43,0-.76-.05-.97-.15-.21-.1-.35-.25-.42-.47-.07-.21-.1-.5-.1-.85v-4.2h-2.46v1c0,.4-.04,.86-.11,1.37-.08,.52-.23,1.04-.47,1.57-.24,.53-.6,1.04-1.08,1.54-.48,.48-1.13,.91-1.94,1.31,.13,.11,.26,.23,.37,.33-.05,.2-.22,.31-.51,.31h-6.12l-.15-.56h4.3l.88-1.12,.28,.22c.18,.14,.4,.32,.65,.54,.09,.06,.17,.14,.25,.22l-.12-.18c.6-.56,1.04-1.16,1.33-1.8,.29-.64,.47-1.28,.56-1.92,.09-.64,.13-1.25,.13-1.82v-2.35l2.05,.78h1.98Zm-7.1,3.69l.28,.21c.18,.16,.4,.35,.66,.56,.25,.22,.48,.42,.67,.61-.05,.21-.22,.32-.51,.32h-6.12l-.15-.56h4.3l.88-1.14Zm-.84,6.33l.86-.92,1.82,1.39c-.13,.15-.39,.27-.78,.34v4.62c0,.05-.08,.12-.23,.19-.16,.08-.35,.15-.57,.22-.22,.07-.43,.11-.63,.11h-.27v-1.1h-2.59v1.25c0,.06-.07,.13-.21,.21-.14,.08-.32,.16-.53,.23-.21,.07-.44,.11-.69,.11h-.26v-7.43l1.78,.75h2.3Zm-2.97-11.16c.78,.09,1.4,.25,1.85,.48,.45,.23,.76,.48,.95,.76,.18,.28,.27,.55,.25,.82-.02,.27-.11,.49-.28,.67-.17,.18-.39,.29-.65,.31-.27,.03-.55-.06-.85-.25-.08-.46-.26-.94-.54-1.44-.29-.5-.58-.92-.88-1.24l.15-.11Zm3.17,15.46v-3.73h-2.59v3.73h2.59Zm8.81-6.68l1.12-1.06,1.79,1.64c-.07,.09-.16,.15-.28,.2-.12,.04-.29,.07-.52,.08-.56,1.33-1.3,2.54-2.21,3.62-.25,.29-.51,.57-.78,.84,.57,.35,1.19,.66,1.86,.92,.95,.38,1.96,.67,3.05,.9l-.04,.24c-.39,.06-.72,.23-.99,.52-.27,.28-.48,.64-.61,1.09-1.35-.5-2.54-1.11-3.55-1.84-.33-.25-.64-.51-.93-.78-.44,.32-.91,.64-1.4,.94-1.35,.78-2.98,1.4-4.87,1.86l-.13-.28c2.25-.85,4.1-2,5.55-3.45-.26-.34-.51-.7-.74-1.08-.61-1.04-1.09-2.3-1.44-3.77h-1.02l-.17-.56h6.35Zm-2.11,4.45c.95-1.17,1.68-2.47,2.18-3.88h-4.83c.3,.83,.68,1.58,1.15,2.24,.43,.62,.93,1.16,1.5,1.64Z"/>
          </g>
        </g>
      </g>
      <line class="cls-5" x1="395.82" y1="27.16" x2="395.82" y2="61.25"/>
      <g>
        <text class="cls-8" transform="translate(191.07 43.76)"><tspan x="0" y="0">精英開發有限公司</tspan></text>
        <g>
          <path class="cls-1" d="M162.94,27.44s-8.67,1.28-17.04,9.41c0,0-4.17,4.04-3.51,7.8,.66,3.76,2.48,4.91,5.24,5.86l-.17,10.19s-9.86-.16-12.09-8.25c-2.23-8.09,6.02-15.52,7.1-16.42,1.07-.91,8.29-7.76,20.47-8.58Z"/>
          <path class="cls-19" d="M152.05,33.09s8.25-4.21,14.15-1.49c0,0,5.43,2.68,3.18,8.5-1.77,4.58-4.95,6.44-4.95,6.44l-.12,10.52s7.96-3.09,13.49-13.7c.56-1.07,3.55-9.82-4.87-14.61-2.54-1.44-10.4-2.56-20.88,4.34Z"/>
          <path class="cls-12" d="M163.36,40.94c0,3.97-3.21,7.18-7.18,7.18s-7.18-3.22-7.18-7.18,3.21-7.18,7.18-7.18,7.18,3.22,7.18,7.18Z"/>
        </g>
        <text class="cls-9" transform="translate(191.07 60.29) scale(.95 1)"><tspan class="cls-13" x="0" y="0">E</tspan><tspan class="cls-11" x="7.97" y="0">L</tspan><tspan class="cls-15" x="15.78" y="0">ITE </tspan><tspan class="cls-20" x="42.12" y="0">R</tspan><tspan class="cls-15" x="51.13" y="0">EAL ES</tspan><tspan class="cls-4" x="95.67" y="0">TA</tspan><tspan class="cls-15" x="111.15" y="0">TE </tspan><tspan class="cls-2" x="131.84" y="0">A</tspan><tspan class="cls-14" x="140.36" y="0">G</tspan><tspan class="cls-13" x="150.09" y="0">E</tspan><tspan class="cls-17" x="158.07" y="0">N</tspan><tspan class="cls-7" x="168.16" y="0">CY</tspan></text>
      </g>
    </g>
  </g>
</svg>