<?xml version="1.0" encoding="UTF-8"?>
<svg id="_圖層_2" data-name="圖層 2" xmlns="http://www.w3.org/2000/svg" viewBox="0 0 1920 608.69">
  <defs>
    <style>
      .cls-1, .cls-2 {
        fill-rule: evenodd;
      }

      .cls-1, .cls-3, .cls-4 {
        fill: #232323;
      }

      .cls-5 {
        fill: #d8d8d8;
      }

      .cls-6 {
        letter-spacing: .26em;
      }

      .cls-2 {
        fill: #fff;
      }

      .cls-7 {
        stroke: #757575;
      }

      .cls-7, .cls-8 {
        fill: none;
        stroke-miterlimit: 10;
      }

      .cls-9 {
        letter-spacing: .4em;
      }

      .cls-3, .cls-4 {
        font-family: NotoSerifTC-SemiBold-90ms-RKSJ-H, 'Noto Serif TC';
        font-size: 17px;
        glyph-orientation-vertical: 0deg;
        text-orientation: upright;
        writing-mode: tb;
      }

      .cls-8 {
        stroke: #232323;
      }

      .cls-4 {
        letter-spacing: .4em;
      }

      .cls-10 {
        fill: #c30d23;
      }
    </style>
  </defs>
  <g id="text">
    <text class="cls-3" transform="translate(137.91 428.79)"><tspan class="cls-6" x="0" y="0">一</tspan><tspan class="cls-9" x="0" y="21.34">研九鼎</tspan></text>
    <g>
      <text class="cls-4" transform="translate(1782.13 327.78)"><tspan x="0" y="0">探索</tspan><tspan x="0" y="47.6" xml:space="preserve">      </tspan><tspan x="0" y="114.31">是在巨石中鑿光</tspan></text>
      <line class="cls-8" x1="1782.13" y1="430.76" x2="1782.13" y2="380.64"/>
    </g>
    <g>
      <rect class="cls-5" width="1920" height="80"/>
      <g>
        <line class="cls-7" x1="1739.9" y1="28.26" x2="1790.03" y2="28.26"/>
        <line class="cls-7" x1="1739.9" y1="40" x2="1790.03" y2="40"/>
        <line class="cls-7" x1="1764.97" y1="51.74" x2="1790.03" y2="51.74"/>
      </g>
      <g>
        <g>
          <path class="cls-1" d="M215.05,41.65c0,.59-.02,1.18-.05,1.77-.14,.4-.7,.66-.89,1.12-.43,1.05-.24,3.43,.19,4.35,1.31,.26,2.4,.78,3.68,.08,.42,.51,1.71,.41,2.27,.15,.04,.21,0,.14,.13,.25h.43c.13-.13,.25-.27,.38-.4,.18,.13,.43,.33,.75,.18,.39-.2,.4-.63,.71-.88,.89,.29,1.73-.61,1.7-1.62-.24-.14-.75-.47-.66-.8,.06-.07,.13-.19,.18-.27h.18c.52,.44,.72,2.22,1.8,1.99,.39-.09,.6-.38,1.09-.44,.02,0,.06,.03,.09,.05v.33c-.49,.37-.95,1.05-1.18,1.64-.08,.24,0,.59-.14,.77-.32,.29-.89,.29-1.27,.51-.16,.17-.31,.36-.47,.52-.67-.19-1.3-.23-1.95-.33-.1,1.07-.99,.63-1.7,.47h-.99c-1.35-.27-2.38-1.06-3.49,.09-.49-.03-.52-.35-.85-.56-1.12,.36-1.6-.23-2.31,.63,0-.05-.02-.08-.04-.1-.61-.7,0-1.84,.04-2.59,.02-.22-.21-.28-.14-.62,.27-1.25,.56-3.27,.38-4.75-.13-.15-2.19-.88-2.4-.91-.45,.3-1.61,.82-1.65,1.46,.42,1-.13,2.29-.18,3.34-.01,.24,.25,.31,.13,.62-.13,.37-.48,.59-.74,.86,0,.54,0,1.01-.25,1.32-.23,.32-3.25,1.51-3.43,1.47-.09-.14-.17-.26-.24-.39-.58,.23-3,.21-2.03-.7,.78,.43,1.34-.31,1.79-.68,.24,.14,.14,.15,.38,0,.32-.6,1.5-.53,1.8-1.16v-.57c.31-.45,.94-.76,1.17-1.32,.26-.62,.06-.99,.47-1.45-.65-1.29-3.87,1.45-4.96,1.6-.07-.75-1.25-1.01-1.08-1.87,.19-.32,3.22-1.05,3.77-1.24,.44-.13,2.77-1.19,2.89-1.46-.04-.18-.06-.38-.1-.57,.18-.44,.38-.88,.56-1.32,.43-1.44-.18-2.94-.66-3.91-.21,.02-.2,.06-.33-.05-.29-.36-.59-1.11-.33-1.31,.03-.07,.07-.11,.1-.14,.56,.46,1.04,.44,1.74,.78-.01,.33,0,.45,.19,.58,.34,.18,1.27-.13,1.52-.38-.24,1.12-1.67,3.41-.44,4.57,.2-.13,.16-.15,.44-.15,.11,.13,.24,.23,.37,.34,1.43-.37,2.53-1.41,4.28-1.56,.19,.21,.4,.25,.66,.39v.04c-.13,.06-.18-.02-.23,.1,.03,.26,.05,.53,.09,.79-.12,.65-.57,.98-.89,1.41-.11,0-.18-.02-.29-.05"/>
          <path class="cls-1" d="M148.02,40.66c.54-.02,2.51,.93,2.65,1.22,.33,.73-.56,1.7-1.04,1.84-1.11,.28-1.67-.62-2.51-.84-1.52-.45-2.54,.49-3.86,.52-.41,0-.5-.38-.8-.45-.05,0-1.75-.17-1.75-.17-.12,.14-.25,.25-.38,.37h-.09c-.1-.2-.1-.28-.33-.37-.07,.16-.13,.32-.18,.46-1.47-.32-3.67,.33-4.62,.94-.3,.22-.4,.66-.66,.86-.31,.22-1.85,.51-2.18,.43-.31-.98-.77-1.92-1.5-2.52-.35-.25-.67,.07-.85-.41,.56-.02,1.1-.02,1.65-.04,.55,.13,.78,.6,1.65,.41,1.06-.22,1.78-.97,2.78-1.23,1.44-.36,2.53,.83,3.34-.43,.22,.1,.44,.2,.67,.29,.23-.12,.18-.2,.32-.37,.21,.08,.41,.15,.61,.24,.56-.09,.92-.64,1.8-.47,1.18,.22,3.33,.65,4.9,.24,.05-.34,.16-.36,.37-.51"/>
          <path class="cls-1" d="M241.18,36.06c.49-.78,1.18-1,1.8-1.62,.29,.47-.07,1.2-.19,1.57-.44,.27-.93,.18-1.56,.14,0-.03-.03-.07-.05-.09m2.69,4.05c.78-.48,.18-1.55,.65-2.36,.33-.54,.9-.93,1.18-1.6,.69-1.57,1.03-4.04,1.27-5.83,.12-.87,.24-2.16-.09-2.85-.6-1.21-1.99-1.51-3.91-1.45-1.14,.51-2.26,.51-2.97,1.4,1.12,.25,2.62,.36,3.57-.09,.49,.39,.89,1.63,.48,2.59-.58,1.21-2-.09-3.11,.16-.38,.14-.79,.3-1.18,.46-.11,.13-.22,.24-.33,.37,.57,.27,1.1,.23,1.46,.66,.15,.83-.33,1.79-.94,2.02-.03,.05-.07,.08-.1,.1-1.03-.89-1.03-2.89-2.02-3.86-.04-.04-.07-.06-.1-.08-.34,.83-1.06,2.87-.8,4.18,.29,.88,.59,1.75,.9,2.64,.25,1.5,.07,3.71,1.88,3.77,.44-.42,.81-1.55,.85-2.3,.02-.02,.07-.02,.1-.07,.46,1.1,1.46,3.2,3.2,2.14"/>
          <path class="cls-1" d="M245.37,38.3c.18,.11,.35,.2,.53,.3-.15,1.58-1.67,1.99-1.93,3.48,.65-.32,1.31-.63,1.98-.94,1.27-.53,2.58-.82,3.58-1.55,.36-1.32-1.08-2.47-2.41-2.41-.56,.35-1.28,.47-1.75,.89v.23Z"/>
          <path class="cls-1" d="M238.4,51.65c.54-3.32-.05-6.86,1.08-9.85-.19-.22-.5-.25-.84-.33-.32,.06-.52-.27-.61-.56-.16-.05-.33-.06-.48-.09-.29,.24-.95,.33-1.18,.65-.65,.93,.04,2.3,.23,3.01,.06,.68,.13,1.39,.2,2.08-1.07,.28-1.31,1.01-2.65,.99-.14-.21-.46-1.42-.42-1.6,.04-.24,.16-.56,.05-.81-.09-.14-.26-.12-.34-.23-.09-.41-.18-.82-.27-1.22-.24-.42-.68-.56-.85-1.1h-.05c-.08,.1-.16,.19-.24,.28,.13,.37,.25,.73,.37,1.09-.08,.26-.15,.54-.23,.79,.08,.4,.15,.82,.23,1.23,.12,.75-.15,1.49,.06,2.3-.39,.51-.94,.51-.95,1.43,.2,.08,.44-.02,.66,.03,.2,.21,.4,.42,.61,.61,.44-.05,.59-.27,.94-.38,1.09-.29,2.21-.6,3.16-.99h.04c.15,.63,.15,1.53,0,2.15-1.76,.76-3.51,1.5-5.29,2.23-.51,.22-1.54,.71-1.5,1.33,.02,.04,.04,.08,.06,.14,.34,.52,.79,1.26,1.03,1.83,.14,.04,.28,.07,.41,.1,.61-1.36,1.9-1.59,3.04-2.41,.61-.45,1.09-1.02,1.84-1.37,.63,.39,.74,3.88,.55,5-.94,.52-1.55-.01-2.69-.04-.04,.02-.06,.02-.09,.04-.02,.04-.04,.1-.05,.16,.65,.87,2.69,1.55,3.92,.64,.27-1.26-.1-2.41,.13-3.68,.13-.61,.27-1.35,.24-2.22,.25-.17,.42-.25,.89-.24,.2-.34,.47-.64,.52-1.13-.39-.08-.99,.06-1.55,.1"/>
          <path class="cls-1" d="M252.4,41.96c-.39-.45-1.04-.6-1.88-.58-.39,.14-.78,.28-1.18,.42-1.94,1.2-3.13,3.33-5.47,4.3-.26-.76-.49-1.77-.57-2.7h-.1c-.21,.54-.4,1.06-.61,1.6-.22,.96-.41,1.91-.62,2.88-.24,.64-.99,1.15-1.13,1.73-.16,.67,.98,3.18,1.27,3.4,.17,.02,.34,.03,.52,.05,.7-.72,.46-2.12,.79-3.25,.39-1.29,2.77-3.56,4.1-3.86,.96,.92,.59,2.23,.84,3.95,.25,1.56,.85,7.09,.15,8.39-.23,.18-.44,.38-.66,.56,.13,.86,1.03,1.52,1.93,1.13,.73-1.22,.28-3.42,.04-5-.02-1.39-.06-2.8-.08-4.2v-3.72c-.17-.53-1.2-1.06-1.62-1.4,0-.05-.02-.09-.04-.14,1.33-1.38,4.36-1.26,4.29-3.57"/>
        </g>
        <g>
          <rect class="cls-10" x="158.98" y="28.16" width="36.01" height="29.35"/>
          <path class="cls-2" d="M188.4,37.45c-.32,.07-.77-.14-.9-.41-.09-.1-.06-.07-.09-.23,.06-.05,.12-.1,.19-.14,.45,.16,.58,.35,.8,.73v.05Zm-3.93,1.49c.02-1.08,1.82-2.12,2.49-.97-.48,.59-1.39,1.01-2.49,.97m7.21-.64c1.12-1.56-3.48-2.86-5.07-2.58-1.8,.35-2.74,1.7-3.47,3.04-.2,.38-.39,.74-.6,1.12-.35,.24-1.24,.06-1.78,.06-.09-.13-.17-.27-.26-.38-.15-.51,1.1-2.19,1.39-2.62,1.07-1.53,2.17-3.08,3.69-4.2,.96-.65,1.95-1.32,2.92-1.97,1.17-1.46-.95-2.39-2.48-2.37-1.27,1.35-3.64,2.49-6.42,2.1-.1,.23-.33,.54-.21,.88,.21,.5,1.97,1.73,2.89,1.57,.72-.17,1.46-.37,2.18-.55,.02,0,.04,.02,.05,.04,.01,.08,.03,.16,.05,.24-.69,.86-1.19,1.93-1.88,2.79-.87,1.12-2.06,2.06-2.83,3.27-.39,.61-.79,1.84-.4,2.71,.29,.64,1.7,.74,2.24,1.16-.39,1.77-3.02,6.1-.64,7.2,.31,0,.43-.01,.6-.13,.61-.41,.43-1.98,.59-2.81,.31-1.64,.46-5.43,1.74-6.03,.36-.06,.73-.15,1.09-.22,.54-.2,1.1-.4,1.84-.23,.11,.54,.33,1.3,.2,2.05-.05,.55-.09,1.09-.14,1.63,.08,2.38,.16,4.72,.24,7.1,0,1.13,.19,3.79-.3,4.43-.44,.58-1.87,.45-2.78,.56v.07c.24,.4,1.28,1.38,2.05,1.06,1.67,1.4,2.87,.41,3.27-1.39,.31-1.42-.57-3.51-.3-4.76,.2-.95-.02-3.32-.25-4.45v-7.31c.7-.5,1.91-.77,2.79-1.08"/>
          <path class="cls-2" d="M164.5,49.4c2.41-5.12,4.99-10.45,8.04-15.01,1-1.51,2.95-4.17,5.06-4.49,.02-.14,.04-.3,.05-.46-.33-.23-.73-.53-1.24-.57-.59,.41-1.49,1.51-2.28,1.07-1.02,.69-3.85,1.87-5.48,1.17h-.04c0,.37,.13,.53,.34,.7,.73,.68,4.18-.16,4.47-.93,.15,.02,.51,.2,.9,.23v.05c-1.08,1.34-2.17,2.67-3.22,4.01-2.45,3.3-4.54,7.02-6.32,10.86-.83,1.82-2.04,3.06-2.44,5.38-.14,.86,.2,1.49,.3,2.14,.22-.01,.43-.02,.65-.04,.48-.45-.03-1.54,.21-2.26,.32-.62,.66-1.22,1-1.86"/>
          <path class="cls-2" d="M176.66,40.44c-.38-.12-.91-.16-1.48-.15-1.71,.71-4.5,1.69-4.92,3.45-.07,.02-.13,.03-.2,.05-.75-.34-.86-1.35-1.09-2.15-.03-.03-.07-.03-.1-.04-.46,1.06-.58,2.45-.24,3.63,.38,.24,.44,.15,.89,.06,.42,.41,.54,1.21,1.28,1.35h.07c.23-.39,.19-1.1,.38-1.55,.43-.93,1.72-2.18,2.9-2.43,.08,.08,.16,.13,.25,.2,.36,1.3-.17,1.09-.5,1.82-.49,1.05-.48,1.11-2.09,1.07-.23,.24-.4,.38-.5,.76,.15,.35,.3,.72,.45,1.06,1.56,.58,1.35-.09,2.59-.39,.82-.24,1.35,.28,1.78,.39,1.11,.35,2.1-.46,2.08-1.25-.43-.4-1.38-.46-1.63-1.03-.13-1,3.77-3.77,.09-4.86"/>
        </g>
      </g>
    </g>
  </g>
</svg>