<?xml version="1.0" encoding="UTF-8"?>
<svg id="_圖層_2" data-name="圖層 2" xmlns="http://www.w3.org/2000/svg" viewBox="0 0 36.01 29.8">
  <defs>
    <style>
      .cls-1 {
        fill: #fff;
        fill-rule: evenodd;
      }

      .cls-2 {
        fill: #c30d23;
      }
    </style>
  </defs>
  <g id="text">
    <g>
      <rect class="cls-2" width="36.01" height="29.35"/>
      <path class="cls-1" d="M29.41,9.29c-.32,.07-.77-.14-.9-.41-.09-.1-.06-.07-.09-.23,.06-.05,.12-.1,.19-.14,.45,.16,.58,.35,.8,.73v.05Zm-3.93,1.49c.02-1.08,1.82-2.12,2.49-.97-.48,.59-1.39,1.01-2.49,.97m7.21-.64c1.12-1.56-3.48-2.86-5.07-2.58-1.8,.35-2.74,1.7-3.47,3.04-.2,.38-.39,.74-.6,1.12-.35,.24-1.24,.06-1.78,.06-.09-.13-.17-.27-.26-.38-.15-.51,1.1-2.19,1.39-2.62,1.07-1.53,2.17-3.08,3.69-4.2,.96-.65,1.95-1.32,2.92-1.97,1.17-1.46-.95-2.39-2.48-2.37-1.27,1.35-3.64,2.49-6.42,2.1-.1,.23-.33,.54-.21,.88,.21,.5,1.97,1.73,2.89,1.57,.72-.17,1.46-.37,2.18-.55,.02,0,.04,.02,.05,.04,.01,.08,.03,.16,.05,.24-.69,.86-1.19,1.93-1.88,2.79-.87,1.12-2.06,2.06-2.83,3.27-.39,.61-.79,1.84-.4,2.71,.29,.64,1.7,.74,2.24,1.16-.39,1.77-3.02,6.1-.64,7.2,.31,0,.43-.01,.6-.13,.61-.41,.43-1.98,.59-2.81,.31-1.64,.46-5.43,1.74-6.03,.36-.06,.73-.15,1.09-.22,.54-.2,1.1-.4,1.84-.23,.11,.54,.33,1.3,.2,2.05-.05,.55-.09,1.09-.14,1.63,.08,2.38,.16,4.72,.24,7.1,0,1.13,.19,3.79-.3,4.43-.44,.58-1.87,.45-2.78,.56v.07c.24,.4,1.28,1.38,2.05,1.06,1.67,1.4,2.87,.41,3.27-1.39,.31-1.42-.57-3.51-.3-4.76,.2-.95-.02-3.32-.25-4.45v-7.31c.7-.5,1.91-.77,2.79-1.08"/>
      <path class="cls-1" d="M5.52,21.24c2.41-5.12,4.99-10.45,8.04-15.01,1-1.51,2.95-4.17,5.06-4.49,.02-.14,.04-.3,.05-.46-.33-.23-.73-.53-1.24-.57-.59,.41-1.49,1.51-2.28,1.07-1.02,.69-3.85,1.87-5.48,1.17h-.04c0,.37,.13,.53,.34,.7,.73,.68,4.18-.16,4.47-.93,.15,.02,.51,.2,.9,.23v.05c-1.08,1.34-2.17,2.67-3.22,4.01-2.45,3.3-4.54,7.02-6.32,10.86-.83,1.82-2.04,3.06-2.44,5.38-.14,.86,.2,1.49,.3,2.14,.22-.01,.43-.02,.65-.04,.48-.45-.03-1.54,.21-2.26,.32-.62,.66-1.22,1-1.86"/>
      <path class="cls-1" d="M17.68,12.29c-.38-.12-.91-.16-1.48-.15-1.71,.71-4.5,1.69-4.92,3.45-.07,.02-.13,.03-.2,.05-.75-.34-.86-1.35-1.09-2.15-.03-.03-.07-.03-.1-.04-.46,1.06-.58,2.45-.24,3.63,.38,.24,.44,.15,.89,.06,.42,.41,.54,1.21,1.28,1.35h.07c.23-.39,.19-1.1,.38-1.55,.43-.93,1.72-2.18,2.9-2.43,.08,.08,.16,.13,.25,.2,.36,1.3-.17,1.09-.5,1.82-.49,1.05-.48,1.11-2.09,1.07-.23,.24-.4,.38-.5,.76,.15,.35,.3,.72,.45,1.06,1.56,.58,1.35-.09,2.59-.39,.82-.24,1.35,.28,1.78,.39,1.11,.35,2.1-.46,2.08-1.25-.43-.4-1.38-.46-1.63-1.03-.13-1,3.77-3.77,.09-4.86"/>
    </g>
  </g>
</svg>