<?xml version="1.0" encoding="UTF-8"?>
<svg id="_圖層_2" data-name="圖層 2" xmlns="http://www.w3.org/2000/svg" viewBox="0 0 185.63 8.68">
  <defs>
    <style>
      .cls-1 {
        fill: #333;
      }
    </style>
  </defs>
  <g id="text">
    <g>
      <path class="cls-1" d="M0,.18H5.07V1.37H1.64V3.58h3.25v1.22H1.64v2.43h3.56v1.26H0V.18Z"/>
      <path class="cls-1" d="M8.12,.18h1.64V7.22h3.33v1.27h-4.97V.18Z"/>
      <path class="cls-1" d="M15.47,.18h1.64V8.49h-1.64V.18Z"/>
      <path class="cls-1" d="M19.49,.18h6.04V1.46h-2.21v7.02h-1.64V1.46h-2.19V.18Z"/>
      <path class="cls-1" d="M27.89,.18h5.07V1.37h-3.44V3.58h3.25v1.22h-3.25v2.43h3.56v1.26h-5.19V.18Z"/>
      <path class="cls-1" d="M40.88,.18h2.72c1.01,0,1.77,.18,2.28,.54,.51,.36,.76,.89,.76,1.6,0,.53-.15,.97-.45,1.32-.3,.35-.73,.58-1.29,.7,.24,.08,.43,.19,.58,.35,.15,.16,.31,.46,.49,.91l1.15,2.89h-1.72l-.93-2.51c-.13-.36-.3-.61-.51-.76-.21-.14-.52-.21-.93-.21h-.51v3.48h-1.61V.18Zm1.61,1.16V3.84h.84c.53,0,.94-.11,1.23-.33,.29-.22,.43-.53,.43-.93,0-.43-.14-.74-.43-.94-.29-.2-.74-.3-1.35-.3h-.72Z"/>
      <path class="cls-1" d="M49.49,.18h5.07V1.37h-3.44V3.58h3.25v1.22h-3.25v2.43h3.56v1.26h-5.19V.18Z"/>
      <path class="cls-1" d="M59.86,.18h1.98l3.21,8.3h-1.76l-.69-1.96h-3.62l-.72,1.96h-1.62L59.86,.18Zm.96,1.39l-1.39,3.73h2.73l-1.34-3.73Z"/>
      <path class="cls-1" d="M67.08,.18h1.64V7.22h3.33v1.27h-4.97V.18Z"/>
      <path class="cls-1" d="M79.29,.18h5.07V1.37h-3.44V3.58h3.25v1.22h-3.25v2.43h3.56v1.26h-5.19V.18Z"/>
      <path class="cls-1" d="M92.26,.4l-.14,1.3c-.31-.14-.62-.25-.93-.32-.31-.07-.61-.11-.91-.11-.44,0-.78,.08-1.03,.24-.25,.16-.37,.39-.37,.68,0,.36,.45,.77,1.33,1.22,.09,.04,.15,.08,.2,.1,.83,.42,1.4,.82,1.7,1.2,.3,.38,.45,.83,.45,1.35,0,.77-.29,1.39-.88,1.88-.58,.49-1.35,.73-2.3,.73-.39,0-1.05-.14-1.97-.42-.1-.03-.17-.06-.22-.08l.15-1.42c.47,.23,.86,.39,1.17,.49,.32,.1,.6,.15,.87,.15,.44,0,.8-.1,1.07-.31,.27-.2,.41-.46,.41-.77,0-.41-.45-.85-1.33-1.33-.06-.03-.11-.06-.14-.08-.04-.02-.09-.05-.17-.09-.66-.35-1.12-.67-1.39-.96-.19-.2-.34-.43-.43-.69-.1-.26-.15-.53-.15-.82,0-.7,.28-1.27,.83-1.71,.55-.43,1.29-.65,2.21-.65,.36,0,.88,.1,1.57,.29,.18,.05,.31,.09,.4,.11Z"/>
      <path class="cls-1" d="M94.63,.18h6.04V1.46h-2.21v7.02h-1.64V1.46h-2.19V.18Z"/>
      <path class="cls-1" d="M104.85,.18h1.98l3.21,8.3h-1.76l-.69-1.96h-3.62l-.72,1.96h-1.62L104.85,.18Zm.96,1.39l-1.39,3.73h2.73l-1.34-3.73Z"/>
      <path class="cls-1" d="M110.86,.18h6.04V1.46h-2.21v7.02h-1.64V1.46h-2.19V.18Z"/>
      <path class="cls-1" d="M119.26,.18h5.07V1.37h-3.44V3.58h3.25v1.22h-3.25v2.43h3.56v1.26h-5.19V.18Z"/>
      <path class="cls-1" d="M134.49,.18h1.98l3.21,8.3h-1.76l-.69-1.96h-3.62l-.72,1.96h-1.62L134.49,.18Zm.96,1.39l-1.39,3.73h2.73l-1.34-3.73Z"/>
      <path class="cls-1" d="M148.51,.44l-.17,1.3s-.11-.04-.19-.06c-.83-.29-1.48-.44-1.94-.44-.93,0-1.68,.29-2.26,.88-.58,.59-.87,1.34-.87,2.26s.28,1.6,.84,2.16c.56,.56,1.28,.84,2.18,.84,.2,0,.5-.06,.89-.19,.08-.03,.15-.05,.19-.06v-2.12s-1.53,0-1.53,0v-1.17h3.08v4.29c-.61,.2-1.12,.34-1.52,.42-.4,.08-.78,.12-1.15,.12-1.44,0-2.58-.38-3.41-1.15-.83-.77-1.25-1.81-1.25-3.14s.43-2.41,1.27-3.19c.85-.78,2.02-1.17,3.5-1.17,.35,0,.91,.09,1.66,.28,.31,.07,.54,.13,.7,.16Z"/>
      <path class="cls-1" d="M151.87,.18h5.07V1.37h-3.44V3.58h3.25v1.22h-3.25v2.43h3.56v1.26h-5.19V.18Z"/>
      <path class="cls-1" d="M159.99,.18h2.06l3.05,5.8c.08,.16,.16,.37,.26,.62,.1,.26,.19,.55,.29,.88-.07-.39-.12-.75-.15-1.07-.03-.32-.05-.6-.05-.83V.18h1.48V8.49h-2.03l-3.14-5.94c-.08-.15-.16-.34-.25-.58-.08-.24-.16-.53-.25-.85,.06,.49,.11,.9,.15,1.25,.04,.35,.06,.59,.06,.73v5.39h-1.48V.18Z"/>
      <path class="cls-1" d="M176.45,.44l-.11,1.31s-.07-.03-.12-.05c-.77-.29-1.37-.43-1.81-.43-.91,0-1.64,.28-2.19,.85-.55,.57-.82,1.32-.82,2.26,0,.89,.28,1.61,.84,2.16,.56,.55,1.31,.83,2.23,.83,.31,0,.77-.11,1.39-.32,.22-.07,.38-.13,.49-.16l.14,1.31c-.1,.03-.25,.07-.45,.12-.75,.21-1.32,.32-1.71,.32-1.43,0-2.56-.38-3.38-1.15-.83-.77-1.24-1.81-1.24-3.12s.41-2.37,1.24-3.18c.83-.8,1.93-1.21,3.29-1.21,.43,0,1,.11,1.72,.32,.21,.06,.37,.1,.47,.13Z"/>
      <path class="cls-1" d="M177.93,.18h1.88l2.02,3.75,2.02-3.75h1.77l-3.04,5.01v3.29h-1.64v-3.27l-3.02-5.04Z"/>
    </g>
  </g>
</svg>