<?xml version="1.0" encoding="UTF-8"?>
<svg id="_圖層_2" data-name="圖層 2" xmlns="http://www.w3.org/2000/svg" viewBox="0 0 181.3 181.4">
  <defs>
    <style>
      .cls-1 {
        fill-rule: evenodd;
      }
    </style>
  </defs>
  <g id="text">
    <g>
      <path class="cls-1" d="M160.13,55.51c-1.94,.41-4.7-.84-5.53-2.5-.54-.62-.36-.41-.57-1.42,.39-.33,.74-.6,1.16-.86,2.79,1.01,3.55,2.16,4.94,4.49v.29Zm-24.15,9.16c.11-6.63,11.19-12.99,15.31-5.98-2.92,3.6-8.54,6.18-15.31,5.98m44.25-3.95c6.9-9.58-21.35-17.58-31.14-15.84-11.03,2.12-16.84,10.41-21.32,18.65-1.22,2.34-2.4,4.57-3.71,6.87-2.16,1.49-7.59,.38-10.92,.38-.56-.78-1.02-1.63-1.58-2.32-.92-3.1,6.73-13.45,8.54-16.08,6.54-9.37,13.35-18.94,22.65-25.76,5.92-3.99,11.98-8.12,17.93-12.08C167.85,5.59,154.84-.12,145.47,0c-7.79,8.29-22.36,15.28-39.4,12.9-.63,1.4-2,3.3-1.27,5.41,1.27,3.07,12.07,10.62,17.76,9.66,4.44-1.02,8.96-2.27,13.41-3.36,.11,.04,.26,.12,.32,.23,.09,.5,.18,1,.29,1.48-4.22,5.27-7.32,11.83-11.56,17.13-5.35,6.88-12.63,12.67-17.37,20.1-2.43,3.77-4.87,11.27-2.47,16.65,1.76,3.92,10.44,4.57,13.73,7.1-2.41,10.86-18.56,37.44-3.95,44.19,1.88,0,2.62-.08,3.68-.8,3.75-2.55,2.62-12.13,3.63-17.25,1.88-10.05,2.85-33.33,10.7-37.03,2.18-.36,4.48-.9,6.71-1.34,3.33-1.25,6.75-2.47,11.27-1.4,.68,3.34,2,7.95,1.2,12.56-.29,3.38-.53,6.69-.86,10.01,.47,14.58,.96,29,1.49,43.59,0,6.93,1.14,23.29-1.84,27.18-2.7,3.59-11.48,2.79-17.1,3.42v.41c1.48,2.47,7.88,8.5,12.56,6.51,10.26,8.6,17.64,2.55,20.07-8.51,1.9-8.74-3.51-21.53-1.82-29.21,1.24-5.85-.14-20.4-1.54-27.35v-44.9c4.29-3.04,11.74-4.73,17.12-6.63"/>
      <path class="cls-1" d="M13.4,128.85c14.8-31.46,30.65-64.19,49.37-92.16,6.12-9.3,18.14-25.61,31.1-27.59,.12-.89,.24-1.82,.33-2.83-2.03-1.42-4.46-3.28-7.61-3.48-3.65,2.52-9.15,9.3-14,6.58-6.27,4.25-23.65,11.51-33.63,7.2h-.23c0,2.25,.81,3.22,2.08,4.31,4.46,4.2,25.67-.99,27.47-5.73,.93,.12,3.14,1.21,5.5,1.42v.3c-6.63,8.21-13.3,16.41-19.8,24.65-15.02,20.28-27.87,43.11-38.81,66.69C10.08,119.36,2.64,127,.2,141.25c-.84,5.26,1.25,9.16,1.82,13.14,1.36-.09,2.65-.12,3.96-.24,2.97-2.76-.18-9.46,1.29-13.88,1.97-3.78,4.05-7.5,6.12-11.42"/>
      <path class="cls-1" d="M88.05,73.89c-2.32-.74-5.61-.98-9.1-.9-10.49,4.37-27.63,10.4-30.19,21.21-.45,.15-.8,.21-1.25,.32-4.6-2.09-5.26-8.3-6.69-13.2-.2-.17-.41-.17-.6-.24-2.8,6.51-3.54,15.05-1.49,22.3,2.34,1.45,2.68,.92,5.47,.36,2.56,2.53,3.32,7.43,7.87,8.27h.41c1.4-2.43,1.19-6.78,2.35-9.49,2.67-5.74,10.58-13.41,17.78-14.93,.51,.47,.96,.83,1.54,1.24,2.23,7.95-1.02,6.72-3.09,11.15-3,6.43-2.97,6.84-12.85,6.55-1.42,1.45-2.47,2.34-3.04,4.64,.93,2.14,1.82,4.4,2.76,6.54,9.55,3.59,8.3-.57,15.88-2.43,5.06-1.49,8.3,1.7,10.94,2.43,6.81,2.17,12.87-2.83,12.76-7.67-2.64-2.47-8.5-2.83-9.99-6.3-.77-6.13,23.14-23.16,.56-29.85"/>
    </g>
  </g>
</svg>